<?xml version="1.0" encoding="utf-8"?>
<!-- Generator: Adobe Illustrator 28.3.0, SVG Export Plug-In . SVG Version: 6.00 Build 0)  -->
<svg version="1.1" id="Layer_1" xmlns="http://www.w3.org/2000/svg" xmlns:xlink="http://www.w3.org/1999/xlink" x="0px" y="0px"
	 width="32px" height="928px" viewBox="0 0 32 928" enable-background="new 0 0 32 928" xml:space="preserve">
<path d="M27.9574,245.0774c-0.3697,0.3517-0.7266,0.734-1.1283,1.0614c-0.4012,0.327-0.8473,0.599-1.3054,0.9171
	c-0.0417,0.1442-0.0932,0.3226-0.1578,0.5461c-5.9195,4.3595-12.7704,4.3772-18.6738-0.0217
	c-0.0483-0.1866-0.0947-0.3656-0.1507-0.5816c-0.9105-0.4814-1.6997-1.1509-2.4201-1.9777
	c-0.1317-1.2529-0.0479-2.5391,0.0059-3.8242c0.4943-0.7015,1.2644-1.8467,2.0761-2.1194c0.1749-0.0619,0.3458-0.1349,0.5279-0.2067
	c0.0426-0.1007,0.0913-0.1925,0.1212-0.2901c0.2672-0.8718,0.5714-1.7253,0.6734-2.6497c0.1612-1.707,1.5979-2.6101,3.1212-3.0819
	c0.1488-0.2487,0.2375-0.3194,0.5089-0.4539c1.4542-0.7801,3.0099-1.2014,4.6536-1.2984c1.9149-0.0061,3.764,0.5171,5.4374,1.4948
	c0.0488,0.0875,0.1084,0.1946,0.1729,0.3105c0.0456,0.0276,0.0957,0.0664,0.1521,0.0905c1.38,0.4769,2.5244,1.4294,2.7173,2.9574
	c0.0383,0.2683,0.1249,0.5206,0.2345,0.7723c0.2935,0.6985,0.5547,1.3903,0.7888,2.1157c0.1355,0.0573,0.2643,0.1226,0.3999,0.1672
	c0.4468,0.1469,0.8263,0.3948,1.1273,0.7542c0.3207,0.3828,0.6297,0.7753,0.9444,1.1631c0.1221,0.1504,0.1802,0.3231,0.2032,0.5146
	C28.0508,241.967,28.0418,244.4233,27.9574,245.0774z M8.3441,246.7018c2.2991,1.8197,5.6446,2.4745,8.5289,2.3109
	c2.3283-0.181,4.9258-0.8284,6.7248-2.3949c0.3566-1.4711,0.3402-2.9691,0.2298-4.4648c-0.0398-0.5397-0.023-1.1082-0.2927-1.6597
	c-0.6426,0.527-1.2428,0.9054-2.0734,1.0125c-0.206,0.0293-0.4117,0.0614-0.6183,0.0865c-1.6141,0.1942-4.5337-0.112-4.8903-2.0754
	c-0.1661,0.0698-0.1577,0.209-0.1951,0.3236c-0.2046,0.6655-0.7786,1.0833-1.4014,1.3265c-1.3245,0.5598-2.4075,0.5378-3.8001,0.364
	c-0.7259-0.0596-1.3759-0.3089-1.9471-0.7633c-0.0779-0.062-0.1567-0.1436-0.2755-0.0915
	C7.8884,242.0744,7.8822,244.7983,8.3441,246.7018z M17.2793,236.9932c0.0288,0.4252,0.0489,0.9444,0.1028,1.4602
	c0.0722,0.6912,0.4675,1.1514,1.1162,1.3645c0.7171,0.2356,1.461,0.3166,2.2153,0.2464c0.9864-0.1213,1.448-0.4945,1.6856-1.4696
	c0.2197-0.8813,0.1963-1.7714,0.0834-2.6635c-0.0308-0.2431-0.1618-0.4339-0.3664-0.553c-0.9649-0.5929-2.1066-0.7678-3.2162-0.8716
	c-0.1238-0.0104-0.2498-0.006-0.374,0.0026C17.136,234.6227,17.3588,235.9093,17.2793,236.9932z M14.4635,236.964
	c0.0012,0,0.0025,0,0.0037,0c0-0.3956,0.0157-0.792-0.0035-1.1866c-0.015-0.8846-0.7339-1.2844-1.5526-1.2081
	c-0.6857,0.0594-1.365,0.1657-2.0286,0.3498c-0.539,0.165-1.4736,0.4563-1.5051,1.1259c-0.0809,0.9737-0.1702,1.9655,0.1781,2.9029
	c0.203,0.5853,0.6098,0.9307,1.2091,1.0508c0.2237,0.0448,0.4552,0.0979,0.6792,0.0839c0.4971-0.031,1.0006-0.0606,1.4854-0.1655
	C14.5583,239.6192,14.504,238.3272,14.4635,236.964z"/>
<path d="M6.6781,279.2352c-0.0441-0.1911-0.0812-0.3513-0.1258-0.5443c-0.9372-0.4974-1.7442-1.1734-2.4421-2.0032
	c-0.1042-1.2687-0.0465-2.5346,0.0254-3.8186c0.3886-0.5619,0.8046-1.1061,1.2866-1.5971c0.2209-0.225,0.4849-0.3918,0.7788-0.5082
	c0.1727-0.0684,0.3472-0.1324,0.5472-0.2085c0.0837-0.2528,0.1523-0.5143,0.2555-0.7611c0.2835-0.6781,0.4178-1.3849,0.5009-2.1131
	c0.1591-1.6762,1.5746-2.7268,3.1204-3.1346c0.0585-0.0754,0.1333-0.1718,0.2133-0.2749c3.3246-1.9377,7.0675-1.9469,10.3935-0.0073
	c0.0571,0.098,0.1187,0.2038,0.1863,0.3197c0.0457,0.0247,0.0985,0.0578,0.1549,0.0832c1.3537,0.492,2.497,1.3845,2.7042,2.8965
	c0.0503,0.3299,0.1496,0.6402,0.2903,0.9483c0.2911,0.6619,0.5223,1.3556,0.7593,2.0391c0.134,0.0535,0.2462,0.1082,0.3642,0.1436
	c0.9496,0.259,1.4442,1.1495,2.0438,1.8509c0.1483,0.1827,0.2435,0.3855,0.2534,0.6247c0.0482,1.1643,0.0682,2.3284,0.0067,3.5067
	c-0.6941,0.817-1.4851,1.5111-2.4454,1.9993c-0.0609,0.1938-0.1163,0.3702-0.1844,0.5871
	c-2.6994,2.0013-6.0194,3.2976-9.4059,3.3163C12.6123,282.5063,9.3407,281.2466,6.6781,279.2352z M8.319,278.3553
	c1.7413,1.4336,3.9948,2.0022,6.1904,2.2649c2.8873,0.3994,6.8027-0.4293,9.0778-2.2988c0.3408-1.3414,0.3311-2.6725,0.2704-4.0031
	c-0.0327-0.7161-0.0586-1.4398-0.2932-2.1589c-0.1985,0.0716-0.3043,0.2056-0.4327,0.3043
	c-0.4367,0.3357-0.922,0.5649-1.4644,0.6642c-1.449,0.2725-2.9871,0.2698-4.3486-0.3513c-0.6626-0.2862-1.1609-0.727-1.334-1.4629
	c-0.0081-0.0345-0.0399-0.0633-0.0609-0.0952c-0.1237,0.0367-0.129,0.1491-0.1574,0.2463c-0.2388,0.8914-1.1023,1.274-1.9023,1.5397
	c-1.5067,0.4949-4.0832,0.446-5.3235-0.6299c-0.0526-0.044-0.1383-0.0484-0.2454-0.083
	C7.9203,274.3192,7.8504,276.2975,8.319,278.3553z M22.4654,267.4801c-0.1225-0.2901-0.3077-0.4603-0.539-0.564
	c-0.3401-0.1526-0.6821-0.3209-1.0414-0.4067c-0.6049-0.1444-1.2228-0.2364-1.8378-0.335
	c-0.8113-0.1185-1.6318,0.2128-1.6877,1.1174c-0.0532,0.5781-0.0527,1.1622-0.0526,1.7437c0.0001,0.3521,0.032,0.7057,0.0721,1.056
	c0.1574,1.6277,2.1707,1.7031,3.4406,1.6227c0.6285-0.0801,1.2427-0.3799,1.4399-1.0227
	C22.6365,269.6736,22.6266,268.5042,22.4654,267.4801z M14.4613,268.583c0.0071,0,0.0143,0,0.0214,0
	c-0.002-0.4155,0.0102-0.8333-0.0213-1.2476c-0.1197-1.0147-0.9722-1.1809-1.8404-1.0807
	c-0.9448,0.1138-1.9085,0.2825-2.7469,0.7563c-0.3141,0.1678-0.4744,0.4375-0.5137,0.8021c-0.0784,0.728-0.1014,1.4534,0.036,2.1747
	c0.1436,0.6738,0.3311,1.3337,1.0506,1.5757c0.7904,0.2801,1.6562,0.1997,2.4623,0.0282
	C14.5584,271.2647,14.506,269.9724,14.4613,268.583z"/>
<path d="M4.1133,213.2056c-0.1102-1.2856-0.05-2.5519,0.0204-3.8317c0.3894-0.5662,0.8072-1.1094,1.2884-1.6012
	c0.2204-0.2252,0.4861-0.3911,0.7796-0.508c0.1542-0.0614,0.3121-0.1134,0.4951-0.1793c0.2388-0.4924,0.3981-1.0388,0.5786-1.5574
	c0.0515-0.1565,0.0877-0.3197,0.1132-0.4826c0.0387-0.2466,0.0649-0.4953,0.0912-0.7436c0.1574-1.7871,1.4805-2.7894,3.0719-3.2793
	c0.2199-0.1619,0.3727-0.3042,0.5503-0.4003c1.2773-0.6912,2.6387-1.0972,4.0826-1.285c2.1173-0.1939,4.2135,0.3804,6.0443,1.4281
	c0.064,0.1,0.13,0.2033,0.2003,0.3132c1.3207,0.4411,2.5834,1.3416,2.8165,2.7994c0.0809,0.4768,0.2239,0.9233,0.419,1.3638
	c0.2551,0.5938,0.4403,1.2087,0.6747,1.8139c0.1654,0.0634,0.3184,0.1255,0.4739,0.1808c0.3601,0.1281,0.6801,0.3246,0.9295,0.6113
	c0.355,0.408,0.6899,0.8334,1.0319,1.2526c0.136,0.1667,0.2061,0.3597,0.2149,0.5747c0.0477,1.1646,0.0663,2.3292,0.0075,3.5093
	c-0.6974,0.8128-1.4899,1.5059-2.4532,2.0023c-0.0514,0.1682-0.0994,0.3257-0.1658,0.5432
	c-5.8892,4.3739-12.8041,4.3499-18.6966,0.0022c-0.046-0.1892-0.0849-0.349-0.1313-0.5398
	C5.6293,214.7083,4.8402,214.0397,4.1133,213.2056z M15.9449,207.6087c-0.1468,0.1044-0.1532,0.234-0.1916,0.3496
	c-0.1936,0.6176-0.7169,1.0282-1.2927,1.2738c-1.3337,0.5662-2.3791,0.6027-3.7936,0.4211
	c-0.7661-0.0616-1.4654-0.2965-2.0691-0.7854c-0.0815-0.066-0.167-0.1276-0.3155-0.0394c-0.367,1.9769-0.4363,3.9748,0.0329,5.9403
	c0.7063,0.823,2.6218,1.5732,3.6789,1.8487c1.3727,0.3313,2.7835,0.579,4.1973,0.5606c0.6848-0.0232,1.3721-0.0929,2.049-0.2008
	c1.8255-0.302,3.9407-0.9525,5.3415-2.2016c0.2358-0.8529,0.2995-1.7035,0.3036-2.558c0.0053-1.1037-0.0197-2.2071-0.224-3.297
	c-0.0175-0.0933-0.0132-0.2096-0.1679-0.2746c-0.0818,0.0592-0.1827,0.1253-0.2757,0.2009
	c-0.5311,0.4318-1.1398,0.6807-1.8144,0.7738c-0.2887,0.0399-0.5779,0.0778-0.8678,0.1071
	C18.9848,209.8676,16.2708,209.4759,15.9449,207.6087z M17.2809,205.0616c0.0259,0.4249,0.0506,0.9022,0.0851,1.3788
	c0.0584,0.8074,0.5131,1.3032,1.2668,1.5181c0.7455,0.2126,1.5097,0.2899,2.2845,0.1801c1.1317-0.137,1.3807-0.8865,1.5722-1.8802
	c0.1227-0.6601,0.0722-1.3247,0.0206-1.9904c-0.0305-0.3933-0.2019-0.6673-0.5372-0.8527c-1.0162-0.5342-2.3537-0.8004-3.496-0.7825
	C17.1414,202.7822,17.3594,204.0281,17.2809,205.0616z M9.4022,203.9905c-0.145,0.9556-0.1785,1.9882,0.1072,2.9338
	c0.205,0.7179,0.6744,1.1207,1.4148,1.2169c0.8141,0.1036,2.0186,0.0108,2.7336-0.4008c0.3818-0.2161,0.6321-0.5403,0.7118-0.9732
	c0.0562-0.3054,0.102-0.6166,0.1091-0.9262c0.0097-0.6851,0.0052-1.3725-0.0154-2.0574c-0.0666-0.8628-0.9426-1.2325-1.7175-1.0891
	c-0.9416,0.1602-1.8959,0.2798-2.76,0.7154C9.7557,203.5101,9.5553,203.6634,9.4022,203.9905z"/>
<path d="M25.3373,302.1815c0.1069,0.0538,0.1595,0.0929,0.2183,0.108c1.0315,0.244,1.5805,1.1702,2.2038,1.937
	c0.1478,0.1858,0.2228,0.3961,0.2323,0.6331c0.0459,1.1441,0.0542,2.288,0.0142,3.4406c-0.7034,0.8196-1.488,1.5218-2.4531,2.0238
	c-0.0623,0.1544-0.1237,0.3067-0.2087,0.5177c-5.9144,4.2021-12.76,4.2218-18.6499-0.0353
	c-0.0505-0.1652-0.0925-0.3024-0.1265-0.4133c-0.9106-0.6295-1.769-1.1905-2.4542-2.0688
	c-0.1083-1.2622-0.0472-2.5286,0.0222-3.8006c0.3904-0.5743,0.8086-1.1176,1.2902-1.6093c0.2353-0.2402,0.5182-0.4163,0.8371-0.5304
	c0.1366-0.0489,0.272-0.1009,0.4304-0.1598c0.0608-0.1445,0.1399-0.2915,0.186-0.4482c0.4119-1.3994,0.5679-1.265,0.6354-2.5288
	c0.0644-1.207,0.7735-2.0793,1.8216-2.6676c0.145-0.0813,0.2916-0.1661,0.4476-0.2203c0.6306-0.2193,1.212-0.5409,1.8055-0.8394
	c3.0249-1.5125,6.3284-1.3856,9.2884,0.1978c0.1125,0.0533,0.2453,0.0966,0.3226,0.1849c0.1891,0.2162,0.4416,0.2987,0.6929,0.3969
	c0.4493,0.1754,0.8579,0.4203,1.2275,0.7325c1.3431,1.1394,0.9223,1.9962,1.5622,3.3803
	C24.9303,300.9967,25.1219,301.5779,25.3373,302.1815z M8.3983,303.7357c-0.5183,1.16-0.5282,4.4859-0.0375,6.1257
	c1.9096,1.6763,5.2214,2.2646,7.7467,2.3101c2.4041-0.0492,5.6145-0.7449,7.4655-2.3429c0.4291-1.5665,0.4107-4.8852-0.0274-6.1938
	c-0.0206-0.0021-0.047-0.0134-0.0609-0.0048c-0.0696,0.0437-0.14,0.0876-0.2026,0.1404c-0.506,0.4262-1.0822,0.6981-1.7401,0.782
	c-1.5652,0.2779-2.9949,0.2721-4.4428-0.4722c-0.6831-0.3439-0.9598-0.7848-1.1748-1.5092
	c-0.0594,0.0974-0.1188,0.1586-0.1369,0.2303c-0.1548,0.6113-0.5527,1.0213-1.0998,1.2844
	c-1.3354,0.6682-2.6788,0.7571-4.1378,0.5234c-0.7155-0.0852-1.3798-0.3032-1.9498-0.7629
	C8.5532,303.8084,8.493,303.7868,8.3983,303.7357z M17.2785,300.0557c0.0287,0.4244,0.0499,0.9226,0.0989,1.4181
	c0.0683,0.6908,0.4537,1.1489,1.1006,1.3775c0.8182,0.2892,1.6674,0.3607,2.5215,0.2479c0.6185-0.0817,1.0823-0.415,1.2883-1.0339
	c0.3427-0.9264,0.318-1.9272,0.2042-2.8942c-0.0315-0.2635-0.148-0.474-0.3625-0.6274c-0.8909-0.6409-2.553-0.9182-3.6391-0.9064
	C17.1527,297.6852,17.353,299.043,17.2785,300.0557z M14.4792,300.0233c-0.0013,0-0.0026,0-0.0039-0.0001
	c-0.0047-0.3954,0.011-0.7917-0.0086-1.1867c-0.0382-0.8162-0.7236-1.2049-1.4846-1.1499
	c-1.0526,0.1032-2.1194,0.2821-3.0653,0.7791c-0.3424,0.1698-0.5379,0.4464-0.5544,0.8403
	c-0.0105,0.2495-0.0319,0.4987-0.0541,0.7475c-0.0544,0.6096,0.0216,1.2065,0.1844,1.7924
	c0.2298,0.8271,0.7007,1.2182,1.5621,1.2816c0.8281,0.0602,1.678-0.0306,2.4472-0.3587
	C14.5893,302.3331,14.481,300.9958,14.4792,300.0233z"/>
<path d="M6.6795,183.7273c-0.0446-0.1728-0.0697-0.2733-0.0971-0.3731c-0.0053-0.0195-0.0193-0.0367-0.0584-0.1081
	c-0.8858-0.4653-1.6697-1.1418-2.4059-1.9753c-0.1302-1.2381-0.0447-2.5241,0.0086-3.8142c0.5355-0.7436,1.2442-1.8471,2.125-2.1476
	c0.1367-0.0478,0.2726-0.0982,0.4291-0.1547c0.2515-0.5177,0.4207-1.0788,0.6112-1.6221c0.1282-0.4381,0.1358-0.9034,0.2001-1.3536
	c0.1677-1.5683,1.3153-2.5938,2.7493-3.0737c0.2314-0.0926,0.4556-0.1889,0.675-0.3133c2.9863-1.7589,6.6737-1.8928,9.7349-0.2699
	c0.1496,0.0729,0.3026,0.1427,0.4414,0.2332c0.1378,0.0898,0.2597,0.204,0.4045,0.2759c0.4068,0.2073,0.8321,0.3852,1.2167,0.6277
	c0.8721,0.5499,1.4162,1.3347,1.5663,2.3698c0.06,0.4141,0.1759,0.8063,0.3536,1.1894c0.272,0.6131,0.4744,1.2427,0.7018,1.878
	c0.1172,0.0524,0.2254,0.1144,0.3416,0.1504c0.9694,0.2698,1.4713,1.1844,2.085,1.9009c0.1508,0.1849,0.2232,0.3953,0.2318,0.6325
	c0.0413,1.1445,0.061,2.2888,0.0048,3.4606c-0.6978,0.7978-1.4721,1.5128-2.4377,1.9915c-0.0672,0.1681-0.1283,0.3207-0.214,0.5351
	C19.2552,188.0081,12.7505,188.0221,6.6795,183.7273z M15.922,175.4938c-0.0543,0.0898-0.1131,0.1508-0.131,0.2222
	c-0.1661,0.6608-0.6107,1.0714-1.2028,1.3487c-1.4254,0.7021-3.0556,0.697-4.5805,0.3765
	c-0.6057-0.0971-1.1006-0.4479-1.5996-0.7833c-0.5256,1.0312-0.5511,4.4271-0.0526,6.1422
	c0.0891,0.0771,0.1898,0.1846,0.3094,0.2637c1.3248,0.9234,2.867,1.4334,4.4445,1.7314c2.9838,0.6005,6.141,0.2733,8.9008-1.0355
	c0.5589-0.2775,1.1164-0.5607,1.5982-1.0391c0.4242-1.9612,0.336-4.0142,0.0122-5.9856c-0.0108-0.0803-0.0285-0.1651-0.1617-0.1752
	c-0.5569,0.4825-1.1796,0.8289-1.9187,0.9309c-1.3636,0.2433-2.7609,0.2532-4.0501-0.3049
	c-0.2671-0.1095-0.5224-0.2572-0.7646-0.4157c-0.2841-0.1858-0.4904-0.4488-0.6161-0.7681
	C16.0488,175.8479,15.9945,175.6914,15.922,175.4938z M22.5658,173.0511c-0.0188-0.2593-0.047-0.5702-0.0625-0.8817
	c-0.0196-0.3932-0.2154-0.6714-0.5583-0.8379c-0.2985-0.1448-0.6004-0.3049-0.9193-0.3806
	c-0.687-0.1631-1.3846-0.2835-2.0805-0.4062c-0.6713-0.1102-1.4726,0.2434-1.5749,0.9769
	c-0.0291,0.1636-0.0548,0.3302-0.0571,0.4957c0.006,0.8505-0.072,1.7129,0.0896,2.5532c0.2309,1.3624,1.9662,1.49,3.0859,1.5175
	c0.897-0.0404,1.6023-0.3326,1.859-1.2576C22.5123,174.2659,22.5757,173.6898,22.5658,173.0511z M14.4728,172.9769
	c-0.0023,0-0.0047,0-0.007,0c0-0.4151,0.0209-0.8315-0.0049-1.2451c-0.0836-1.0415-1.0068-1.2104-1.8769-1.0825
	c-0.9373,0.1653-1.8975,0.2925-2.7345,0.7788c-0.2742,0.1393-0.434,0.3787-0.4689,0.6921c-0.0253,0.227-0.062,0.4531-0.0771,0.6807
	c-0.0473,0.7104,0.0214,1.4104,0.2224,2.0945c0.1726,0.5877,0.5656,0.9279,1.1535,1.1082c0.6269,0.1922,2.3895-0.034,2.9235-0.3484
	C14.5839,175.1336,14.4795,173.9263,14.4728,172.9769z"/>
<path d="M6.7072,727.9411c-0.0635-0.1414-0.1139-0.2537-0.1726-0.3843c-0.9305-0.4789-1.6996-1.1718-2.4174-1.9734
	c-0.1199-1.2733-0.0549-2.5591,0.0181-3.8354c0.3838-0.5711,0.7957-1.0926,1.2563-1.5745c0.2327-0.2435,0.5091-0.4271,0.8263-0.5468
	c0.1543-0.0582,0.3071-0.1208,0.4704-0.1854c0.2217-0.5897,0.4469-1.1702,0.6552-1.7567c0.0473-0.1331,0.0328-0.2876,0.0525-0.4314
	c0.0593-0.4324,0.1071-0.867,0.1858-1.296c0.2606-1.4446,1.5889-2.3927,2.9251-2.7747c0.3815-0.1127,0.7434-0.262,1.0981-0.4395
	c2.5735-1.2999,5.6305-1.4149,8.2695-0.2656c0.6669,0.2874,1.3164,0.6206,1.9869,0.9023c1.1524,0.4714,2.1796,1.4005,2.3899,2.6731
	c0.0577,0.3066,0.1016,0.6158,0.1316,0.8003c0.3621,0.9267,0.6796,1.7394,1.0064,2.576c0.1389,0.0571,0.2888,0.1258,0.4434,0.1811
	c0.34,0.1216,0.6427,0.3069,0.878,0.5765c0.3691,0.423,0.7175,0.864,1.074,1.298c0.1679,0.2045,0.2099,0.4487,0.2138,0.7028
	c0.0134,1.1251,0.0539,2.246,0.004,3.3715c-0.7141,0.7875-1.4666,1.498-2.4239,1.9739c-0.0811,0.1432-0.1619,0.2859-0.2719,0.4801
	C19.2917,732.0444,12.6976,732.1008,6.7072,727.9411z M23.5035,720.637c-0.1304,0.0919-0.2168,0.1486-0.2986,0.2113
	c-0.4885,0.3747-1.0301,0.623-1.6452,0.7006c-0.3094,0.0391-0.6203,0.0704-0.9273,0.1241c-1.267,0.2112-2.6212-0.0934-3.7311-0.7073
	c-0.6122-0.3674-0.7592-0.7676-1.0065-1.429c-0.067,0.1816-0.1046,0.2734-0.1351,0.3674c-0.1625,0.5013-0.4862,0.8744-0.9462,1.1125
	c-1.3146,0.7056-2.7181,0.8538-4.1802,0.603c-0.7328-0.0891-1.43-0.2737-2.0209-0.7489c-0.0565-0.0455-0.1365-0.0618-0.204-0.0911
	c-0.4907,0.9943-0.5973,4.7455-0.0314,6.2307c1.6846,1.3232,3.8579,1.8135,5.9446,2.074c2.9868,0.4044,6.7911-0.2867,9.2303-2.1087
	C24.0135,725.4608,23.9891,722.006,23.5035,720.637z M22.5644,717.2811c-0.0215-0.3113-0.0462-0.6224-0.0636-0.934
	c-0.023-0.4131-0.223-0.7142-0.5899-0.8884c-0.9077-0.4944-1.9401-0.591-2.9381-0.7855c-0.6797-0.1186-1.4741,0.1808-1.6009,0.9263
	c-0.022,0.1015-0.0408,0.2055-0.0442,0.3089c-0.0269,0.811-0.0525,1.6206,0.0288,2.4321c0.0833,0.8306,0.5241,1.3309,1.3131,1.5493
	c0.6609,0.2063,1.3489,0.2616,2.0366,0.2356C22.3163,720.1585,22.5628,718.5606,22.5644,717.2811z M14.4689,717.0087
	c-0.0011,0-0.0022,0-0.0032,0c0-0.3944,0.0221-0.7903-0.0051-1.1828c-0.0378-0.7628-0.6844-1.1385-1.3966-1.0808
	c-0.8769,0.0395-1.7265,0.2233-2.552,0.5132c-0.2328,0.0818-0.4529,0.2058-0.6693,0.3273
	c-0.2695,0.1512-0.4323,0.3851-0.4583,0.6993c-0.1095,0.9483-0.1476,1.9189,0.1864,2.8315c0.2247,0.6132,0.6827,0.941,1.3087,0.9955
	c0.7052,0.0614,1.4118,0.0153,2.1009-0.1724C14.5504,719.5699,14.5067,718.3733,14.4689,717.0087z"/>
<path d="M25.376,143.0962c0.1022,0.048,0.1736,0.0947,0.2518,0.1163c1.0023,0.2481,1.5144,1.1911,2.1404,1.9228
	c0.135,0.1673,0.2109,0.3569,0.2204,0.5727c0.0512,1.1653,0.0657,2.3306,0.009,3.5187c-0.7027,0.7992-1.4781,1.5139-2.4351,1.9894
	c-0.0796,0.1455-0.1487,0.2718-0.2161,0.3951c-2.1218,1.5205-4.6012,2.4869-7.1691,2.9314
	c-4.0283,0.6328-8.1795-0.6173-11.4714-2.9482c-0.0439-0.0938-0.0962-0.2056-0.1676-0.3581
	c-0.9004-0.4722-1.6803-1.1539-2.4152-1.9644c-0.1385-1.2592-0.0464-2.5455,0.0001-3.8261c0.393-0.6144,0.841-1.1612,1.3365-1.6676
	c0.3207-0.3477,0.7718-0.4814,1.2059-0.6505c0.1642-0.3154,0.2382-0.6651,0.3809-0.9854c0.3062-0.6544,0.3871-1.3501,0.4401-2.0592
	c0.1283-1.2099,0.7555-2.0925,1.7819-2.7114c0.4309-0.2598,0.9002-0.429,1.3765-0.5845c0.2956-0.0965,0.5952-0.1947,0.8715-0.3345
	c1.3801-0.6982,2.8516-1.0362,4.3843-1.1273c1.6677,0.014,3.316,0.4404,4.8015,1.2028c0.891,0.45,1.8843,0.7046,2.6057,1.4389
	c0.5153,0.4949,0.8497,1.088,0.9452,1.7887c0.0854,0.6269,0.279,1.2079,0.5326,1.7822
	C25.004,142.0317,25.1709,142.5482,25.376,143.0962z M23.5481,144.334c-0.0682,0-0.0924-0.0075-0.1064,0.0012
	c-0.0877,0.055-0.1769,0.1086-0.2585,0.1719c-0.471,0.3651-1.0007,0.5929-1.5892,0.681c-0.288,0.0431-0.5799,0.0632-0.8661,0.1156
	c-1.124,0.206-2.1949-0.0025-3.2421-0.4019c-0.7605-0.2901-1.3312-0.7647-1.5248-1.598c-0.0036-0.0156-0.0244-0.0271-0.0619-0.0665
	c-0.0425,0.0777-0.0955,0.1418-0.1144,0.2147c-0.1578,0.6104-0.5575,1.0213-1.1057,1.2806
	c-1.0734,0.5078-2.1994,0.7593-3.3943,0.6076c-0.908-0.1059-1.8483-0.1833-2.5959-0.7727c-0.0796-0.0612-0.174-0.1031-0.2849-0.1676
	c-0.2219,0.4388-0.2445,0.8982-0.2973,1.3453c-0.1916,1.6223-0.1846,3.2377,0.2149,4.867c2.0423,1.5757,4.6894,2.0779,7.2066,2.2224
	c2.6373,0.1064,5.9203-0.5984,8.0336-2.2241C24.0182,149.3461,23.9752,145.6402,23.5481,144.334z M17.3829,139.1242
	c-0.1218,0.9644-0.1332,2,0.0028,3.034c0.1765,1.6094,2.4323,1.6898,3.6796,1.5751c1.6548-0.1644,1.537-2.5519,1.4267-3.7814
	c-0.0313-0.3432-0.1903-0.585-0.4696-0.7617c-1.0165-0.5953-2.1914-0.7805-3.3461-0.8624
	C18.1047,138.2905,17.6666,138.5206,17.3829,139.1242z M9.3908,139.7607c-0.1173,1.3746-0.355,3.941,1.6064,3.9976
	c0.807,0.0113,1.6377-0.0063,2.3955-0.3194c0.6975-0.2748,0.9987-0.8251,1.0639-1.552c0.0075-0.8112,0.031-1.6234-0.0002-2.4334
	c-0.0522-0.9614-0.9778-1.1736-1.7897-1.0374c-0.5936,0.1039-1.1861,0.2222-1.7701,0.3702
	c-0.2991,0.0758-0.5817,0.2215-0.8668,0.3469C9.7765,139.2447,9.5718,139.4178,9.3908,139.7607z"/>
<path d="M6.689,759.7359c-0.0466-0.1172-0.0847-0.213-0.1387-0.3489c-0.9029-0.4755-1.687-1.1513-2.4268-1.9733
	c-0.1362-1.2433-0.0515-2.5288,0.0021-3.8191c0.3815-0.6071,0.8288-1.1532,1.3229-1.6598c0.3331-0.358,0.7594-0.4924,1.2182-0.6539
	c0.2265-0.5453,0.4777-1.1066,0.6327-1.6763c0.1039-0.4203,0.1353-0.8602,0.1777-1.2936c0.1308-1.3392,0.8365-2.2839,2.0044-2.8928
	c0.6276-0.313,1.3319-0.4788,1.9634-0.7879c1.3566-0.6894,2.7999-1.0488,4.3118-1.1524c1.665-0.0355,3.3267,0.3949,4.8143,1.1311
	c0.4272,0.2136,0.8651,0.4068,1.3047,0.5938c0.4636,0.1973,0.8936,0.4446,1.2756,0.7737c0.5892,0.5074,0.9936,1.1373,1.0953,1.9078
	c0.0886,0.6717,0.3086,1.2877,0.5842,1.8951c0.1933,0.4758,0.3539,0.9766,0.5394,1.4535c0.0925,0.0464,0.162,0.0969,0.2394,0.1176
	c1.0047,0.2399,1.5196,1.1818,2.1454,1.9126c0.1198,0.1484,0.2128,0.3117,0.2237,0.5059c0.0672,1.205,0.0729,2.41,0.0217,3.6141
	c-0.7196,0.7928-1.4793,1.4946-2.4339,1.9781c-0.0675,0.1235-0.1362,0.2494-0.2194,0.4016c-1.7875,1.311-3.9273,2.204-6.0804,2.7409
	C14.9049,763.5499,10.29,762.314,6.689,759.7359z M15.9467,751.3615c-0.0804,0.1018-0.1203,0.1302-0.1283,0.1657
	c-0.1596,0.7141-0.6355,1.1563-1.27,1.4439c-1.4691,0.7097-2.8369,0.6343-4.4015,0.3815c-0.5217-0.074-1.0004-0.278-1.4282-0.5936
	c-0.0938-0.0693-0.1997-0.1221-0.3037-0.1847c-0.5338,1.1648-0.5609,4.5177-0.0499,6.2407c0.1809,0.1306,0.3851,0.313,0.6195,0.4396
	c0.4753,0.2567,0.956,0.5093,1.4539,0.7171c2.6763,1.0376,5.6563,1.3188,8.4698,0.7442c1.4793-0.298,3.5873-0.9518,4.6806-1.9994
	c0.4349-1.7329,0.3895-5.0353-0.0779-6.2004c-0.1921-0.0225-0.2917,0.1365-0.4183,0.2297c-0.8184,0.634-1.8632,0.6786-2.8506,0.7756
	c-0.9757,0.0922-1.9044-0.1093-2.8057-0.4692C16.6777,752.7491,16.117,752.2649,15.9467,751.3615z M17.282,748.9224
	c0.0264,0.373,0.0434,0.8936,0.1049,1.4089c0.0692,0.5803,0.3841,1.0021,0.9282,1.2363c0.7763,0.3422,2.2481,0.5414,3.0548,0.2626
	c0.417-0.1345,0.733-0.4046,0.8763-0.8263c0.1064-0.313,0.1951-0.6368,0.2471-0.9628c0.0987-0.6199,0.0592-1.2437,0.0116-1.8683
	c-0.0319-0.4189-0.2218-0.7183-0.5831-0.8923c-0.3544-0.1708-0.7206-0.332-1.0986-0.4356c-0.5004-0.1371-1.0153-0.2255-1.5279-0.312
	c-0.2445-0.0413-0.4978-0.0329-0.7473-0.0421c-0.6217-0.0228-1.1715,0.4388-1.2064,1.0991
	C17.3209,747.9844,17.3061,748.3795,17.282,748.9224z M14.4812,748.8101c-0.0009,0-0.0018,0-0.0026,0
	c-0.005-0.3737,0.0119-0.7482-0.0098-1.1214c-0.0503-0.9595-0.8914-1.2402-1.7263-1.1126c-0.5942,0.092-1.1874,0.1997-1.7731,0.3352
	c-0.4253,0.0984-0.8236,0.2816-1.1888,0.5297c-0.2183,0.1484-0.3589,0.3424-0.3936,0.6062
	c-0.1302,1.0222-0.1657,2.1015,0.2663,3.0617c0.2377,0.5946,0.8893,0.8196,1.4831,0.8472c0.6462,0.0192,1.2869-0.0542,1.9103-0.2267
	c0.9177-0.2541,1.3035-0.7214,1.4133-1.6737C14.5013,749.6421,14.4744,749.225,14.4812,748.8101z"/>
<path d="M25.397,783.032c0.0689,0.0353,0.1209,0.0739,0.1791,0.09c1.0245,0.2574,1.5745,1.1808,2.1954,1.9493
	c0.1344,0.1689,0.2078,0.3591,0.2171,0.5739c0.0503,1.1646,0.066,2.3291,0.0079,3.5191c-0.7039,0.7941-1.4745,1.5126-2.4272,1.9772
	c-0.0903,0.1486-0.1652,0.2717-0.2631,0.4329c-5.9952,3.9946-12.5711,3.996-18.5656-0.0174
	c-0.082-0.1587-0.1328-0.257-0.2212-0.4067c-0.9288-0.4822-1.7042-1.1658-2.4024-1.9692c-0.1215-1.2661-0.0453-2.5325,0.0098-3.8007
	c0.386-0.6067,0.8212-1.1644,1.3292-1.657c0.2042-0.1979,0.4745-0.3319,0.7264-0.4744c0.1426-0.0807,0.3089-0.1195,0.4854-0.1849
	c0.2207-0.5746,0.4495-1.1532,0.6625-1.7375c0.0485-0.1331,0.0431-0.2859,0.0613-0.4298c0.1418-1.4617,0.2638-2.4599,1.5291-3.3923
	c0.4906-0.3649,1.0368-0.6201,1.6235-0.7782c0.5052-0.1362,0.9815-0.3364,1.4536-0.5565c1.1188-0.5233,2.3326-0.771,3.5561-0.8889
	c0.2483-0.0193,0.5001-0.042,0.7469-0.0215c1.5495,0.1283,3.0379,0.4814,4.4247,1.213c0.2926,0.1545,0.6101,0.2642,0.9215,0.3802
	c0.6118,0.228,1.1645,0.5457,1.6424,0.9967c0.5191,0.4897,0.8613,1.0814,0.9578,1.7811c0.095,0.6892,0.3076,1.329,0.5945,1.9565
	C25.0555,782.0527,25.1817,782.567,25.397,783.032z M23.5647,784.1191c-0.164,0.1101-0.2494,0.1598-0.3263,0.2203
	c-0.8321,0.6705-1.5654,0.7043-2.568,0.8459c-1.1695,0.1907-2.2792-0.0301-3.3532-0.4866
	c-0.6654-0.2828-1.1624-0.7256-1.3338-1.4631c-0.008-0.0344-0.0408-0.0631-0.0628-0.0956
	c-0.1495,0.0533-0.1292,0.1996-0.1695,0.3116c-0.1617,0.4493-0.4492,0.7955-0.8613,1.0331
	c-1.1794,0.6418-2.5244,0.918-3.8608,0.6889c-0.1431-0.0258-0.2903-0.0276-0.4349-0.046c-0.7117-0.0899-1.388-0.2751-1.9655-0.729
	c-0.0595-0.0469-0.1367-0.0712-0.2065-0.1063c-0.5474,1.1826-0.5733,4.7177-0.0465,6.2637
	c2.0521,1.5725,4.7659,2.0262,7.2868,2.1628c1.6583,0.0756,3.2762-0.2255,4.862-0.6995c0.7916-0.2311,2.6555-0.9911,3.1148-1.6434
	C24.02,788.3589,23.9493,786.2943,23.5647,784.1191z M17.329,780.4432c-0.0195,0.0009-0.039,0.0016-0.0585,0.0024
	c0.1532,1.4973-0.1904,2.5355,1.5981,3.011c0.5875,0.143,1.1869,0.1974,1.7909,0.1893c0.9949-0.0132,1.5163-0.4635,1.7394-1.3661
	c0.2136-0.8642,0.1728-1.7299,0.0662-2.5977c-0.0285-0.2322-0.1605-0.4252-0.3678-0.5532
	c-0.4819-0.3354-1.0352-0.5244-1.6056-0.6454c-0.5872-0.1351-1.1754-0.2626-1.7796-0.2828
	c-0.7617-0.0253-1.332,0.3492-1.3798,1.1848C17.3122,779.737,17.329,780.0906,17.329,780.4432z M14.4784,780.551
	c-0.0027,0-0.0054,0-0.0082,0c0-0.374,0.0024-0.748-0.0005-1.122c-0.0061-0.7776-0.6443-1.1633-1.2065-1.1675
	c-0.2074-0.0015-0.4193-0.0037-0.6215,0.0347c-0.5711,0.1083-1.144,0.2161-1.7047,0.3667c-0.3376,0.0907-0.6596,0.2487-0.9779,0.399
	c-0.366,0.173-0.5737,0.465-0.5893,0.8831c-0.0085,0.2281-0.0333,0.4559-0.0539,0.6834c-0.0571,0.6295,0.0251,1.2458,0.1998,1.8478
	c0.2144,0.7391,0.6764,1.119,1.4438,1.1522c0.8264,0.0303,1.6714-0.0389,2.4485-0.3403
	C14.591,782.8709,14.4793,781.5892,14.4784,780.551z"/>
<path d="M6.7106,695.9924c-0.0605-0.1075-0.1209-0.215-0.1884-0.3349c-0.9484-0.4623-1.6955-1.181-2.4096-1.9625
	c-0.1115-1.2725-0.0499-2.5395,0.0195-3.8264c0.3913-0.5826,0.8227-1.1409,1.3265-1.6414c0.209-0.2076,0.4545-0.3643,0.7288-0.4732
	c0.1541-0.0613,0.3099-0.1185,0.4791-0.1829c0.2233-0.5799,0.4545-1.1584,0.6656-1.7441c0.0548-0.1522,0.047-0.327,0.0672-0.4915
	c0.0508-0.4131,0.0839-0.8292,0.1552-1.2387c0.254-1.5675,1.7066-2.5681,3.1535-2.9437c0.4655-0.1252,0.9076-0.2963,1.3441-0.495
	c0.917-0.4173,1.8856-0.65,2.8802-0.7922c1.766-0.2525,3.4383,0.1083,5.0562,0.7822c0.5756,0.2397,1.1345,0.5169,1.7277,0.7177
	c1.23,0.4299,2.3251,1.4364,2.5408,2.7623c0.0557,0.3071,0.0972,0.6168,0.1362,0.8679c0.3503,0.8824,0.68,1.7132,1.0071,2.5372
	c0.0411,0.0281,0.072,0.0629,0.1095,0.0731c1.0514,0.26,1.6279,1.1764,2.2578,1.9713c0.1343,0.1686,0.212,0.3567,0.2212,0.5724
	c0.0497,1.1653,0.0672,2.3304,0.0085,3.5066c-0.6968,0.8184-1.4811,1.5217-2.4585,2.0227c-0.1008,0.2842-0.34,0.4487-0.5882,0.6049
	c-2.1407,1.3484-4.4376,2.2854-6.958,2.6217C14.0225,699.5035,9.977,698.2376,6.7106,695.9924z M8.331,695.0128
	c1.7219,1.3155,3.8885,1.8237,6.0036,2.0684c1.5969,0.1954,3.2046,0.1193,4.777-0.2275c1.3548-0.2793,2.6483-0.7172,3.8424-1.4274
	c0.2333-0.1387,0.4605-0.2813,0.6596-0.5214c0.4021-1.8074,0.3142-3.6517,0.1005-5.4972c-0.0295-0.2552-0.0413-0.5303-0.22-0.778
	c-0.1116,0.0756-0.1991,0.1279-0.2787,0.1901c-0.5042,0.3933-1.0711,0.6332-1.7071,0.7103
	c-1.6536,0.2789-2.9046,0.2771-4.4367-0.4935c-0.507-0.2499-0.8645-0.639-1.0474-1.1827c-0.0271-0.0804,0.0074-0.2109-0.1276-0.2326
	c-0.024,0.018-0.0482,0.0267-0.0548,0.0428c-0.1867,0.5891-0.4856,1.0516-1.0466,1.3334c-1.4976,0.8032-2.9165,0.8275-4.551,0.5293
	c-0.5473-0.0707-1.0445-0.269-1.4982-0.5818c-0.099-0.0682-0.2066-0.1241-0.338-0.2022c-0.2928,0.652-0.3053,1.3257-0.3597,1.98
	C7.9309,692.1375,7.9552,693.5505,8.331,695.0128z M22.5513,685.1294c-0.0149-0.2115-0.0388-0.5018-0.0548-0.7924
	c-0.02-0.3642-0.2005-0.6267-0.5047-0.8107c-0.3582-0.2168-0.7404-0.3872-1.147-0.4795c-0.5873-0.1333-1.1807-0.2407-1.7734-0.3485
	c-1.0948-0.1601-1.7858,0.2853-1.763,1.4849c0.006,0.7883-0.0584,1.5858,0.0877,2.3652c0.092,0.4977,0.3482,0.887,0.8181,1.1094
	c0.7781,0.3837,1.7565,0.4819,2.6164,0.4469C22.381,688.0728,22.5861,686.4033,22.5513,685.1294z M14.466,685.0106
	c0.0005,0,0.001,0,0.0016,0c0-0.3955,0.0134-0.7915-0.003-1.1863c-0.028-0.6756-0.6091-1.0801-1.0907-1.074
	c-0.104,0.0013-0.2085-0.0076-0.312-0.0009c-1.0931,0.0876-2.2093,0.2819-3.1726,0.8301c-0.3089,0.1776-0.4823,0.439-0.5166,0.8036
	c-0.0861,0.9089-0.1095,1.8439,0.2004,2.7156c0.4454,1.389,2.3137,1.0437,3.412,0.7902
	C14.5398,687.5294,14.5079,686.3506,14.466,685.0106z"/>
<path d="M27.9994,340.0176c-0.737,0.8212-1.5031,1.5173-2.4617,2.0034c-0.1772,0.3728-0.5365,0.554-0.871,0.76
	c-3.5999,2.177-8.0198,3.246-12.149,2.1326c-2.0552-0.5322-4.0441-1.3478-5.7744-2.59c-0.0931-0.0735-0.146-0.198-0.2345-0.324
	c-0.9136-0.4727-1.6853-1.1607-2.3876-1.9594c-0.1282-1.2655-0.038-2.5316,0.0014-3.7916c0.3899-0.6159,0.8358-1.1629,1.331-1.6687
	c0.2044-0.2087,0.4498-0.3691,0.7281-0.4724c0.1553-0.0575,0.3084-0.121,0.4778-0.1878c0.2236-0.575,0.4564-1.1518,0.6693-1.7359
	c0.0553-0.1518,0.048-0.3264,0.0701-0.4905c0.0638-0.4736,0.1124-0.9498,0.1956-1.42c0.2465-1.3176,1.4372-2.2569,2.6562-2.6534
	c0.8332-0.2616,1.6554-0.5471,2.4668-0.8721c0.9737-0.39,2.0091-0.5278,3.0472-0.6259c0.6295-0.0594,1.245,0.0778,1.8606,0.1718
	c0.9519,0.1454,1.8556,0.4551,2.7305,0.856c0.3202,0.1468,0.652,0.2708,0.9846,0.3878c1.3748,0.4412,2.6987,1.4301,2.921,2.9407
	c0.0535,0.3073,0.0948,0.6166,0.1336,0.8712c0.35,0.8778,0.6809,1.7075,1.0095,2.5315c0.0392,0.0286,0.0692,0.0656,0.1064,0.0753
	c1.0528,0.2515,1.6264,1.177,2.2544,1.9698c0.1342,0.1689,0.2109,0.3583,0.2205,0.5727
	C28.0381,337.663,28.0508,338.8271,27.9994,340.0176z M8.3995,335.0307c-0.2398,0.6084-0.293,1.2309-0.3432,1.846
	c-0.1208,1.4781-0.1084,2.9519,0.2765,4.4342c2.0311,1.5287,4.6289,1.9893,7.106,2.1624c1.1079,0.0813,2.2045-0.0562,3.2932-0.2505
	c1.6104-0.2981,3.622-0.8861,4.8735-1.9792c0.432-2.007,0.3199-4.0659,0.0009-6.0796c-0.0094-0.0725-0.0681-0.1386-0.1187-0.236
	c-0.1125,0.0763-0.1984,0.1282-0.2774,0.1892c-0.4711,0.3641-0.9984,0.5966-1.5882,0.6839
	c-1.6269,0.3239-3.059,0.2943-4.5604-0.4789c-0.5051-0.2523-0.8646-0.6409-1.0412-1.1884
	c-0.0261-0.0809,0.0111-0.2104-0.1261-0.2345c-0.0322,0.0362-0.0754,0.0626-0.0832,0.097
	c-0.1689,0.7424-0.6808,1.1744-1.3404,1.4576c-0.9103,0.3909-1.8588,0.6148-2.8563,0.5404
	c-1.0242-0.108-2.1197-0.1647-2.9645-0.8252C8.5852,335.1204,8.5072,335.0894,8.3995,335.0307z M17.3203,331.2162
	c-0.0158,0.0007-0.0316,0.0013-0.0474,0.002c0.1275,1.3606-0.1559,2.4725,1.464,2.9374c0.7489,0.2197,1.5155,0.2612,2.2892,0.2153
	c0.6751-0.0399,1.19-0.5751,1.3427-1.2114c0.2559-0.8807,0.2046-1.7727,0.1001-2.6661c-0.0252-0.2157-0.1362-0.3964-0.3107-0.5236
	c-0.9937-0.7162-2.2536-0.8585-3.4378-0.9875c-0.8051-0.0701-1.3675,0.4016-1.3981,1.2346
	C17.3101,330.5495,17.3203,330.883,17.3203,331.2162z M9.4191,330.4126c-0.1106,0.5923-0.1023,1.1746-0.0861,1.7562
	c0.048,1.0304,0.3856,2.1864,1.606,2.2106c0.8689,0.036,1.7604-0.0368,2.5635-0.3932c0.598-0.2366,0.8878-0.8149,0.9474-1.429
	c0.01-0.8305,0.0354-1.662,0.0053-2.4914c-0.0173-0.4768-0.311-0.7957-0.7742-0.9508c-0.3264-0.1094-0.6574-0.1098-0.9853-0.0478
	c-0.5912,0.1116-1.1834,0.2253-1.7649,0.3772c-0.3179,0.083-0.6194,0.2365-0.9199,0.3762
	C9.7616,329.9365,9.5575,330.1125,9.4191,330.4126z"/>
<path d="M24.4005,812.3294c0.3496,0.8701,0.6829,1.6995,1.0162,2.5287c0.0328,0.0249,0.0621,0.0635,0.0988,0.0728
	c1.0531,0.2481,1.6241,1.1841,2.2547,1.9724c0.1341,0.1688,0.2098,0.3573,0.219,0.5729c0.05,1.1649,0.0626,2.3298,0.0106,3.5138
	c-0.591,0.649-1.1985,1.272-1.9622,1.7219c-0.2495,0.147-0.501,0.2822-0.6856,0.5272c-0.1076,0.1428-0.2889,0.235-0.4474,0.3335
	c-2.9864,1.8396-6.5063,2.9432-10.0352,2.649c-2.7442-0.2581-5.3908-1.2019-7.7205-2.6647
	c-0.2062-0.1357-0.4226-0.2543-0.5646-0.4797c-0.0715-0.1136-0.2199-0.1876-0.346-0.2569
	c-0.8155-0.4486-1.4656-1.0899-2.1182-1.7943c-0.1322-1.2629-0.0435-2.5494,0.0044-3.8268c0.3983-0.5895,0.819-1.1304,1.3035-1.6204
	c0.2373-0.2401,0.515-0.4204,0.8331-0.5376c0.135-0.0497,0.2679-0.1053,0.3903-0.1537c0.2285-0.5829,0.4551-1.141,0.6635-1.7059
	c0.0562-0.1522,0.0605-0.3243,0.0824-0.4882c0.066-0.4944,0.1104-0.9925,0.1975-1.483c0.2498-1.3359,1.4745-2.2931,2.7152-2.6772
	c0.9395-0.2739,1.8529-0.6189,2.7772-0.9347c1.6842-0.5731,3.5111-0.654,5.2301-0.1875c1.2131,0.2974,2.3393,0.8629,3.5218,1.2585
	c1.224,0.486,2.2785,1.4771,2.4394,2.8421C24.3188,811.8,24.3643,812.0878,24.4005,812.3294z M23.4812,815.8635
	c-0.1292,0.0792-0.238,0.1352-0.3349,0.2072c-0.4433,0.3296-0.9382,0.545-1.481,0.6273c-1.6384,0.3052-3.1122,0.3251-4.6204-0.4849
	c-0.5254-0.2698-0.8869-0.6796-1.0455-1.2582c-0.0166-0.0605,0.0175-0.1782-0.1476-0.1581
	c-0.1437,0.5022-0.3324,0.9187-0.7849,1.2121c-0.2063,0.1384-0.422,0.2715-0.6501,0.3674
	c-1.4295,0.6296-2.7118,0.6223-4.2232,0.3399c-0.54-0.0906-1.0434-0.282-1.4934-0.6025c-0.0821-0.0585-0.174-0.1035-0.2633-0.1556
	c-0.5402,1.1389-0.5916,4.3313-0.0958,6.298c2.7029,2.0134,7.3867,2.5249,10.6301,1.8384c1.5037-0.2987,3.4868-0.8912,4.6444-1.9304
	c0.3793-1.7807,0.3239-3.5834,0.1107-5.3898C23.6905,816.4703,23.6629,816.1611,23.4812,815.8635z M17.3275,812.1007
	c-0.0172,0.0006-0.0344,0.0012-0.0516,0.0017c0.03,0.4764,0.0524,0.9535,0.0917,1.4292c0.1164,1.7171,2.3237,1.7797,3.6374,1.7383
	c1.0757-0.1049,1.306-0.8663,1.4859-1.7937c0.0942-0.5345,0.0417-1.0764,0.038-1.6168c0.0095-0.7278-0.4212-1.1369-1.0556-1.3645
	c-0.8385-0.329-1.7164-0.488-2.6049-0.5991c-0.8213-0.0695-1.4745,0.2612-1.5351,1.1459
	C17.2995,811.3917,17.3275,811.7476,17.3275,812.1007z M14.4671,812.1903c0.0026,0,0.0053,0,0.0079,0
	c0-0.3538,0.0156-0.7085-0.0032-1.0613c-0.0462-1.1055-0.9559-1.2557-1.8841-1.1202c-0.6513,0.132-1.3033,0.2685-1.9428,0.4472
	c-0.2949,0.0824-0.5671,0.2565-0.8385,0.4088c-0.2502,0.1405-0.3876,0.369-0.4219,0.6571c-0.084,0.7054-0.1129,1.4128,0.0082,2.115
	c0.1571,0.7672,0.3838,1.4397,1.2421,1.6075c0.1217,0.0256,0.2476,0.0436,0.3716,0.0435c0.6674-0.001,1.3329-0.0378,1.9805-0.2131
	C14.5319,814.709,14.5118,813.5298,14.4671,812.1903z"/>
<path d="M4.1249,117.161c-0.1002-0.9108-0.0888-2.7036,0.0253-3.833c0.3736-0.5684,0.8169-1.1455,1.3449-1.6487
	c0.1911-0.1822,0.444-0.3037,0.6792-0.4339c0.1438-0.0796,0.3077-0.1228,0.4634-0.1827c0.2312-0.5855,0.467-1.1616,0.6836-1.7449
	c0.0563-0.1517,0.0546-0.3253,0.0765-0.4893c0.0687-0.5149,0.1135-1.0342,0.2095-1.5439c0.3537-1.7168,2.1431-2.5726,3.7048-2.9346
	c0.3209-0.0825,0.6407-0.1814,0.9468-0.3073c1.1691-0.481,2.3942-0.7125,3.6454-0.7877c0.4718-0.0284,0.9539,0.0609,1.4274,0.1256
	c0.9114,0.1246,1.7911,0.3702,2.6389,0.7328c0.324,0.1386,0.6617,0.2452,0.9935,0.3654c0.3518,0.1275,0.7099,0.2395,1.0544,0.3842
	c1.0849,0.4675,2.0202,1.3994,2.2273,2.5927c0.0666,0.347,0.1082,0.6988,0.1612,1.0488c0.342,0.8433,0.6853,1.6899,1.0358,2.554
	c0.1449,0.0556,0.2991,0.1151,0.4535,0.1742c0.3167,0.1211,0.5996,0.3016,0.8199,0.5552c0.3683,0.424,0.7161,0.8657,1.0719,1.3005
	c0.1226,0.1497,0.1897,0.3222,0.1982,0.5155c0.0523,1.185,0.0732,2.3698,0.0045,3.5798c-0.5625,0.5821-1.122,1.1664-1.8153,1.6047
	c-0.3148,0.199-0.6443,0.369-0.9078,0.6513c-0.1656,0.1774-0.404,0.2912-0.6194,0.417c-3.8509,2.288-8.5649,3.2343-12.8991,1.8777
	c-1.4828-0.434-2.9001-1.0345-4.2316-1.8249c-0.338-0.2007-0.6864-0.3861-0.949-0.6985c-0.1024-0.1218-0.2686-0.1922-0.4105-0.2781
	C5.4038,118.4766,4.7265,117.8901,4.1249,117.161z M23.6006,118.3207c0.4199-1.8616,0.3368-3.7265,0.0989-5.5921
	c-0.0323-0.2534-0.0125-0.5459-0.2509-0.7672c-0.0942,0.0618-0.1828,0.113-0.2638,0.1742
	c-0.4579,0.3455-0.9684,0.5661-1.5359,0.6517c-0.4527,0.0683-0.9039,0.1557-1.3591,0.1957c-1.0848,0.0954-2.1124-0.1501-3.0918-0.6
	c-0.5918-0.2718-1.0327-0.6965-1.2005-1.3544c-0.0136-0.0533-0.0437-0.1024-0.0659-0.1528
	c-0.1361,0.0462-0.1344,0.1611-0.1637,0.2575c-0.1609,0.529-0.5129,0.8955-0.9876,1.1556c-1.1411,0.5802-2.41,0.8505-3.6899,0.6443
	c-0.1435-0.0245-0.2898-0.0316-0.4343-0.0505c-0.7308-0.0952-1.4309-0.2758-2.0328-0.7312
	c-0.0479-0.0362-0.1109-0.0526-0.1664-0.078c-0.2286,0.4259-0.3055,0.6968-0.3972,1.8021
	c-0.1243,1.4982-0.1346,2.9932,0.2654,4.4494c0.3088,0.3195,0.6752,0.5186,1.0462,0.707c1.3716,0.7272,2.8922,1.0549,4.4161,1.2791
	c1.2817,0.2003,2.5693,0.272,3.8581,0.0765c0.7196-0.1092,1.4374-0.2355,2.1501-0.383c1.1515-0.2382,2.2242-0.6899,3.2409-1.2743
	C23.2322,118.6178,23.4049,118.4643,23.6006,118.3207z M22.5648,108.5934c-0.1211-1.3318,0.0963-1.4893-1.2659-2.0539
	c-0.7445-0.2809-1.5244-0.4175-2.3101-0.5172c-0.2049-0.026-0.4176-0.0257-0.6232-0.0039
	c-0.7834,0.0807-1.0641,0.7262-1.0566,1.4464c-0.0038,0.7898-0.0509,1.5865,0.0911,2.3678c0.119,0.7831,0.7616,1.1626,1.4772,1.3339
	c0.6281,0.1669,1.2697,0.2256,1.9184,0.2093C22.3347,111.4119,22.5631,109.8089,22.5648,108.5934z M9.3928,107.4969
	c-0.108,0.9656-0.1811,2.0012,0.1854,2.9334c0.2193,0.588,0.6638,0.8981,1.2757,0.9363c0.772,0.0482,1.5343-0.0387,2.2799-0.2575
	c0.7814-0.2293,1.2664-0.73,1.3096-1.552c0.0436-0.8284,0.0396-1.6614,0.0117-2.4908c-0.0475-0.8498-0.8778-1.0474-1.5974-0.9738
	c-0.9909,0.0964-1.9778,0.3186-2.8722,0.7664C9.734,106.9761,9.5336,107.1533,9.3928,107.4969z"/>
<path d="M27.9967,852.934c-0.6472,0.6949-1.2836,1.351-2.0999,1.7996c-0.1276,0.0701-0.2535,0.1447-0.3731,0.2274
	c-4.1408,2.8502-9.5385,3.8895-14.341,2.2455c-2.0738-0.6432-3.993-1.6899-5.7332-2.9782
	c-0.4957-0.3401-0.9027-0.7984-1.3358-1.2799c-0.1146-1.2618-0.0474-2.5474,0.0181-3.8237
	c0.3911-0.5699,0.8014-1.0931,1.2619-1.5754c0.3263-0.361,0.7767-0.5424,1.2234-0.7003c0.2371-0.5932,0.4765-1.1671,0.6929-1.7495
	c0.0634-0.1705,0.0648-0.3649,0.0884-0.5491c0.0634-0.4947,0.1043-0.9931,0.1892-1.4839c0.2613-1.4859,1.6767-2.4338,3.0379-2.8306
	c1.089-0.2747,2.149-0.6543,3.2422-0.9063c0.6666-0.1537,1.352-0.2482,2.0342-0.3036c0.4085-0.0332,0.829,0.0471,1.2411,0.0997
	c0.8702,0.1112,1.7156,0.3263,2.5378,0.6349c0.2912,0.1093,0.5873,0.2084,0.8871,0.2908c1.6507,0.3917,3.4735,1.4003,3.702,3.2458
	c0.049,0.3292,0.0925,0.6591,0.1368,0.9758c0.3442,0.836,0.6845,1.6626,1.0499,2.5504c0.0696,0.0311,0.1966,0.0993,0.3311,0.1459
	c0.4039,0.1399,0.7444,0.3735,1.0191,0.6962c0.3237,0.3803,0.6334,0.7725,0.9506,1.1583c0.151,0.1838,0.2275,0.3922,0.2361,0.6305
	C28.0346,850.5986,28.0556,851.7426,27.9967,852.934z M8.3351,854.0167c0.292,0.2915,0.6189,0.4763,0.9562,0.6384
	c1.9343,0.9705,4.0768,1.3321,6.2148,1.4534c2.2883,0.1308,6.3669-0.6012,8.0986-2.1506c0.4579-1.9893,0.3238-4.0923-0.0101-6.0935
	c-0.0148-0.1011-0.0544-0.201-0.2105-0.2205c-0.0515,0.0297-0.127,0.0641-0.1925,0.1122c-0.7876,0.5991-1.5879,0.6614-2.5239,0.7996
	c-1.2176,0.2123-2.3572-0.0713-3.4599-0.555c-0.5982-0.2623-1.0351-0.6895-1.208-1.3447c-0.0144-0.0548-0.0442-0.1056-0.0666-0.1575
	c-0.136,0.0408-0.1386,0.1548-0.1672,0.2516c-0.1499,0.5087-0.4803,0.8744-0.9356,1.1196c-1.4763,0.8207-2.9772,0.8876-4.602,0.5544
	c-0.5624-0.0855-1.0856-0.2798-1.5519-0.6149c-0.0651-0.0469-0.1456-0.0723-0.2192-0.1077
	C7.8977,848.8839,7.8358,852.0552,8.3351,854.0167z M17.325,843.8397c-0.0156,0.0005-0.0312,0.001-0.0468,0.0015
	c0.1108,1.42-0.1257,2.475,1.5601,2.9116c0.6875,0.183,1.3879,0.2564,2.0982,0.231c0.1237-0.0044,0.2498-0.019,0.3691-0.0507
	c0.5827-0.1539,0.8976-0.5611,1.0514-1.1219c0.2352-0.858,0.2162-1.7264,0.1117-2.5978c-0.0313-0.2612-0.1749-0.4636-0.3904-0.6118
	c-1.0579-0.6544-2.2987-0.8495-3.5121-0.9543c-0.6078,0.0096-1.1769,0.3219-1.237,1.1338
	C17.3034,843.1321,17.325,843.4866,17.325,843.8397z M14.4832,843.8895c-0.004,0-0.0079,0-0.0119,0
	c0-0.3741,0.0221-0.7499-0.0052-1.1221c-0.0559-0.8015-0.7653-1.1163-1.4932-1.0329c-0.8301,0.0834-1.6435,0.2529-2.4269,0.5413
	c-0.2513,0.0925-0.4897,0.228-0.7202,0.3668c-0.263,0.1584-0.4081,0.3975-0.439,0.7139c-0.0888,0.8854-0.1154,1.8018,0.1813,2.6526
	c0.2333,0.6587,0.6575,0.9487,1.3658,0.9772c0.9116,0.0176,1.8448-0.0903,2.6731-0.4871c0.4179-0.1973,0.6825-0.5382,0.7712-0.9971
	C14.4961,844.9712,14.4952,844.4301,14.4832,843.8895z"/>
<path d="M4.1343,661.7745c-0.1112-0.9335-0.1039-2.6365,0.0132-3.886c0.3894-0.5681,0.8318-1.1718,1.3876-1.6778
	c0.1954-0.1779,0.4504-0.2933,0.6861-0.4228c0.1254-0.069,0.2677-0.107,0.3864-0.1528c0.2492-0.6181,0.4986-1.21,0.7232-1.811
	c0.0635-0.1699,0.0648-0.3661,0.0768-0.5514c0.0337-0.5194,0.0658-1.0377,0.1936-1.5459c0.4723-1.97,2.5928-2.7473,4.3769-3.1046
	c0.2629-0.0602,0.5282-0.1196,0.7818-0.2092c1.0295-0.3635,2.0968-0.5312,3.1787-0.6033c0.349-0.0233,0.7062,0.032,1.0563,0.0773
	c0.8688,0.1121,1.7191,0.3054,2.5446,0.6058c0.2922,0.1063,0.5949,0.1849,0.8953,0.2672c1.7087,0.3926,3.6256,1.4098,3.8423,3.3338
	c0.0454,0.3295,0.0894,0.6592,0.1302,0.9598c0.3525,0.849,0.695,1.674,1.0645,2.5642c0.0471,0.0208,0.1555,0.0796,0.2707,0.118
	c0.426,0.142,0.7782,0.3903,1.0752,0.7229c0.4021,0.4503,0.7838,0.9163,1.147,1.4525c0.0913,1.2383,0.0781,2.5046,0.0395,3.7936
	c-0.5781,0.6294-1.1664,1.2415-1.9043,1.6908c-0.3732,0.2273-0.7398,0.4655-1.1129,0.6931
	c-2.6203,1.5704-5.6195,2.5639-8.6839,2.6346c-3.841,0.0493-7.5444-1.3706-10.6572-3.5616
	C5.0711,662.7782,4.6154,662.2592,4.1343,661.7745z M23.611,662.7025c0.4179-1.9728,0.3462-4.024-0.0006-6.0022
	c-0.0179-0.1145-0.0917-0.2203-0.1518-0.3577c-0.153,0.0855-0.2747,0.1599-0.4019,0.2232c-0.297,0.1478-0.5833,0.3378-0.8977,0.4263
	c-1.0266,0.2891-2.0721,0.4453-3.1418,0.2726c-0.6814-0.11-1.3382-0.3004-1.9524-0.6211c-0.5793-0.2878-0.9666-0.7853-1.1148-1.4183
	c-0.1396,0.0302-0.1552,0.1365-0.1835,0.2361c-0.1518,0.535-0.5108,0.899-0.9871,1.1499c-1.3247,0.7136-2.8356,0.8681-4.2997,0.5873
	c-0.6622-0.1178-1.2956-0.3004-1.8513-0.6971c-0.0483-0.0344-0.1119-0.0474-0.1677-0.0701
	c-0.5741,1.1766-0.6349,4.5033-0.1053,6.3728c2.0752,1.4659,4.7017,1.8687,7.1831,2.0322c1.0648,0.0696,2.1187-0.0664,3.1664-0.239
	c1.2774-0.2104,2.52-0.5445,3.689-1.1154C22.8041,663.2817,23.2249,663.0955,23.611,662.7025z M17.3059,652.5494
	c-0.0102,0.0006-0.0203,0.0012-0.0305,0.0018c0.0318,0.4767,0.0509,0.9546,0.0986,1.4297c0.0668,0.6647,0.4359,1.1191,1.0533,1.349
	c0.8298,0.3088,1.7002,0.4047,2.5779,0.3647c0.7627-0.0166,1.2448-0.5628,1.385-1.2937c0.2127-0.7996,0.1697-1.6089,0.0864-2.4186
	c-0.0296-0.288-0.1942-0.4945-0.4312-0.6541c-0.8927-0.6082-1.9981-0.6807-3.0246-0.9094c-0.2017-0.0381-0.4157-0.035-0.622-0.021
	C17.2027,650.4948,17.2975,651.6417,17.3059,652.5494z M14.4808,652.6519c-0.0019,0-0.0037,0-0.0056,0
	c0-0.3747,0.0189-0.7506-0.0043-1.1239c-0.044-0.913-0.8559-1.1628-1.6507-1.0403c-0.6738,0.1287-1.349,0.2587-2.0118,0.4333
	c-0.3167,0.0834-0.6113,0.2589-0.9074,0.4094c-0.3215,0.1635-0.4902,0.4373-0.52,0.7985c-0.0957,0.9294-0.0913,1.8881,0.2579,2.7682
	c0.1972,0.5668,0.7857,0.8118,1.3566,0.8076c0.8282-0.0206,1.6739-0.0917,2.4492-0.4062
	C14.5497,654.8546,14.4954,653.6575,14.4808,652.6519z"/>
<path d="M27.9606,85.0769c-0.6045,0.6621-1.2504,1.3038-2.0573,1.7661c-2.3133,1.4851-4.8677,2.6003-7.6004,3.0141
	c-3.7097,0.5792-7.5083-0.3508-10.7504-2.1787c-0.6305-0.3632-1.2448-0.7559-1.8535-1.155
	c-0.5964-0.391-1.0688-0.9224-1.5784-1.4479c-0.1252-1.2787-0.0545-2.5644,0.0108-3.8367c0.3987-0.5939,0.8286-1.1277,1.3071-1.6213
	c0.304-0.3351,0.7617-0.502,1.1693-0.6573c0.2398-0.5967,0.4817-1.1694,0.6973-1.7518c0.0702-0.1896,0.0774-0.404,0.1033-0.6083
	c0.0628-0.4944,0.1-0.9929,0.1838-1.4836c0.3021-1.6493,1.9651-2.571,3.4643-2.9532c0.8921-0.2044,1.7748-0.4409,2.6537-0.6945
	c0.6832-0.1971,1.3908-0.2559,2.0933-0.3347c0.5444-0.0611,1.078,0.0746,1.6128,0.1449c1.0618,0.1123,2.0403,0.5614,3.0704,0.8146
	c1.6918,0.3886,3.5724,1.4095,3.7885,3.3081c0.0453,0.3295,0.0903,0.6591,0.1341,0.9792c0.3519,0.8499,0.7012,1.6937,1.0609,2.5626
	c0.0285,0.0148,0.0802,0.0527,0.1381,0.0698c0.9974,0.2681,1.5313,1.169,2.1475,1.9165c0.1504,0.1849,0.2352,0.3912,0.2362,0.6297
	c0.0049,1.1029,0.0096,2.2058,0.0117,3.3087C28.0038,84.9287,27.9793,84.9895,27.9606,85.0769z M8.3278,86.0901
	c0.2013,0.1412,0.3756,0.2946,0.5759,0.3974c1.8715,1.0478,3.9858,1.4623,6.1006,1.6185c2.6498,0.1945,6.4585-0.4084,8.5975-2.0599
	c0.4618-1.9867,0.3245-4.0642,0.0009-6.0619c-0.0167-0.1117-0.095-0.2141-0.1544-0.3414c-0.1017,0.0541-0.1799,0.0834-0.2438,0.1316
	c-0.7664,0.5788-1.7173,0.7279-2.6449,0.8314c-1.4111,0.1743-4.1597-0.3155-4.5594-1.9172
	c-0.0178-0.0601,0.0167-0.1787-0.149-0.1564c-0.2349,0.8516-0.6525,1.2214-1.4426,1.576c-1.4935,0.6327-2.71,0.6415-4.2786,0.3222
	c-0.4976-0.0846-0.9601-0.2669-1.3834-0.5459c-0.0835-0.055-0.1769-0.0951-0.2934-0.1567
	c-0.2393,0.4174-0.2658,0.8556-0.3177,1.2799C7.9298,82.6894,7.8887,84.367,8.3278,86.0901z M17.2828,76.034
	c0.1066,1.6168-0.0305,2.3983,1.8817,2.8116c0.5918,0.1331,1.1943,0.1609,1.8003,0.1465c0.7793,0.0011,1.2498-0.5237,1.4171-1.2466
	c0.2441-0.8179,0.1816-1.6485,0.093-2.4784c-0.0334-0.3128-0.2151-0.5452-0.4878-0.6843c-0.3141-0.1602-0.6315-0.3385-0.969-0.4235
	c-0.7252-0.1828-1.4633-0.3154-2.1983-0.4572c-0.7094-0.1035-1.4525,0.2776-1.4827,1.0485
	C17.3146,75.1239,17.3049,75.4982,17.2828,76.034z M14.4802,75.9064c-0.0007,0-0.0014,0-0.0021,0
	c0-0.3332,0.0146-0.6672-0.003-0.9995c-0.0457-1.0163-0.8983-1.2619-1.7735-1.1061c-0.9759,0.1911-1.9915,0.3227-2.8508,0.8595
	c-0.2704,0.1581-0.4293,0.3912-0.4606,0.7025c-0.0667,0.6643-0.1175,1.332,0.0044,1.9927c0.1497,0.7359,0.3873,1.5763,1.2749,1.6231
	c0.8791,0.058,1.7471-0.0209,2.5889-0.305C14.573,78.2487,14.4943,77.0565,14.4802,75.9064z"/>
<path d="M11.3676,535.8091c-1.2853-0.4739-2.6005-0.861-3.8929-1.314c-1.3319-0.4622-2.4086-1.2941-3.3512-2.3804
	c-0.1328-1.2397-0.0445-2.5053,0.0016-3.796c0.424-0.6324,0.8735-1.2585,1.4628-1.7602c0.2644-0.2251,0.5946-0.3729,0.9573-0.5938
	c0.1922-0.7196,0.5119-1.4611,0.9183-2.1207c-0.0192-1.4209-0.0608-2.7686,1.0674-3.807c1.3119-1.2169,3.1341-1.6689,4.8655-1.89
	c0.5278-0.0581,1.0363,0.0365,1.5506,0.208c0.6487-0.1182,1.3111-0.1673,1.9725-0.0259c0.6952-0.2479,1.3956-0.2238,2.1033-0.1017
	c1.5581,0.2841,3.1814,0.7508,4.3357,1.8943c0.964,0.8976,0.9366,2.0734,1.0526,3.3396c0.3976,0.751,0.8916,1.5757,1.1064,2.4919
	c0.0542,0.0498,0.0798,0.0914,0.1153,0.1033c0.955,0.3063,1.4976,1.1573,2.0948,1.8968c0.1636,0.2011,0.253,0.426,0.2629,0.6859
	c0.0437,1.144,0.0639,2.2878,0.0069,3.4393c-0.8571,0.999-1.8319,1.8372-3.0746,2.2889c-1.4487,0.5114-2.9186,0.9793-4.3829,1.4434
	c-0.3638,0.0832-0.7369,0.1866-1.1044,0.181c-0.899-0.0137-1.7819,0.1399-2.6736,0.1941c-1.0434,0.0634-2.0794,0.0175-3.1118-0.1422
	c-0.4535-0.0607-0.9162-0.0145-1.3708-0.0524c-0.2896-0.0232-0.5763-0.0833-0.8642-0.1272
	C11.3993,535.8457,11.3835,535.8274,11.3676,535.8091z M23.5799,532.3406c0.44-1.4265,0.4047-4.6236-0.0688-6.1902
	c-0.1082-0.1519-0.2452-0.2719-0.4598-0.3027c-0.5965,0.2513-1.2051,0.5929-1.8655,0.6486
	c-1.4177,0.1642-2.8513-0.017-4.1233-0.6886c-0.641-0.319-0.9131-0.7288-1.1303-1.3975c-0.1527,0.0646-0.1422,0.2064-0.1812,0.32
	c-0.1266,0.3685-0.359,0.6589-0.6805,0.8688c-0.5698,0.3835-1.2344,0.6102-1.8948,0.775c-1.6179,0.3652-2.9341,0.2294-4.434-0.5183
	c-0.1084,0.0739-0.2078,0.1417-0.2833,0.1932c-0.5966,1.6039-0.5983,4.9898-0.0874,6.3616c0.8408,0.5182,1.842,0.8317,2.8039,1.0643
	c2.7392,0.6135,5.6016,0.7282,8.3688,0.2404c1.1557-0.1807,2.2772-0.4898,3.3513-0.9601
	C23.1427,532.6465,23.39,532.537,23.5799,532.3406z M21.7457,524.7477c0.8648-0.5759,0.7362-1.7673,0.7647-2.6535
	c0.0208-0.6948-0.2985-1.1237-0.9283-1.3891c-0.9255-0.3902-1.8881-0.6267-2.8763-0.7727
	c-0.2488-0.0367-0.4983-0.0094-0.7364,0.0792c-0.5284,0.1857-0.6563,0.6348-0.664,1.1494
	c-0.0063,0.6839-0.0393,1.3725,0.0836,2.0489c0.0739,0.4611,0.3303,0.8025,0.7349,1.0246c0.893,0.4494,1.9161,0.5609,2.9027,0.5867
	C21.2925,524.8242,21.5589,524.7682,21.7457,524.7477z M10.0668,524.7546c0.2247,0.0212,0.4921,0.0727,0.7583,0.0667
	c0.9475-0.0306,1.923-0.1441,2.7894-0.554c0.6189-0.3156,0.8007-0.8207,0.8611-1.4839c0.0119-0.6023,0.0246-1.2054,0.0056-1.8072
	c-0.025-0.8445-0.7789-1.0592-1.5038-0.949c-1.1098,0.2103-2.2781,0.4058-3.2224,1.0712c-0.2151,0.1505-0.3351,0.3641-0.3553,0.6293
	C9.3473,522.6907,9.184,524.064,10.0668,524.7546z"/>
<path d="M4.1242,499.8831c-0.1193-1.3492-0.0534-2.596,0.0103-3.8898c0.405-0.5668,0.8298-1.1581,1.366-1.6558
	c0.1801-0.1671,0.4055-0.2876,0.6179-0.4167c0.123-0.0747,0.2615-0.124,0.4167-0.1957c0.2138-0.7784,0.5162-1.5277,0.9269-2.153
	c0-0.2609,0.0068-0.4478-0.0013-0.6342c-0.0375-1.0267,0.1069-2.1414,0.8273-2.9281c1.2233-1.3458,3.0815-1.852,4.8219-2.1131
	c0.4954-0.0641,0.9983-0.0815,1.4864,0.0759c0.2243,0.0724,0.4503,0.062,0.6799,0.037c0.4561-0.0496,0.9124-0.0688,1.3711-0.0172
	c0.1635,0.0183,0.3409,0.031,0.4957-0.0121c0.7044-0.1957,1.4042-0.1285,2.1042,0.0044c1.4372,0.2812,2.9128,0.7343,4.0074,1.7539
	c1.056,0.9429,1.0382,2.0701,1.1511,3.4165c0.3829,0.7656,0.9106,1.5754,1.089,2.4818c0.0721,0.0673,0.0972,0.1084,0.1324,0.1208
	c0.9515,0.319,1.5001,1.1544,2.0957,1.8997c0.1633,0.2009,0.2556,0.425,0.2659,0.6854c0.0449,1.1443,0.0659,2.2883,0.0071,3.444
	c-0.8542,0.9993-1.8304,1.8352-3.0723,2.2878c-1.4481,0.5169-2.919,0.9782-4.3829,1.449c-0.5452,0.1463-1.1024,0.2274-1.6669,0.2096
	c-0.3774-0.0118-0.7467,0.024-1.119,0.0741c-1.3639,0.1434-2.75,0.1624-4.1105-0.0452c-0.1628-0.0279-0.3326-0.0379-0.4972-0.0271
	c-0.5039,0.0331-0.9971-0.0519-1.4918-0.1192c-0.1429-0.0195-0.3071-0.0377-0.4161-0.118
	c-0.2463-0.1815-0.5365-0.2191-0.8102-0.3119c-1.1034-0.3743-2.2137-0.7296-3.308-1.1288
	C5.928,501.6504,5.0088,500.7405,4.1242,499.8831z M15.9006,492.1449c-0.0371,0.0544-0.0875,0.0992-0.1016,0.1533
	c-0.1924,0.8169-0.9106,1.2085-1.6315,1.4933c-1.5518,0.5988-3.3821,0.7259-4.9181,0.0087
	c-0.1664-0.0805-0.3417-0.1425-0.5232-0.2172c-0.1098,0.0831-0.2061,0.156-0.3193,0.2416
	c-0.5294,2.0714-0.5508,4.1479-0.1076,6.2294c0.1392,0.0987,0.2493,0.1981,0.3771,0.2627c1.9403,0.9682,4.1005,1.2419,6.2296,1.4077
	c2.6888,0.1403,5.4575-0.189,7.9535-1.2317c0.2666-0.116,0.5354-0.2276,0.7278-0.4311c0.4276-1.2985,0.3865-4.8781-0.1002-6.2566
	c-0.112-0.0736-0.2627-0.1727-0.394-0.2589c-0.8086,0.3913-1.5721,0.7342-2.4759,0.7217c-1.2433,0.0706-2.3324-0.1387-3.4519-0.6762
	c-0.5907-0.2749-1.0368-0.6909-1.1862-1.3595C15.9727,492.2032,15.9343,492.1812,15.9006,492.1449z M22.3269,488.9716
	c-0.4282-0.4045-0.5773-0.5087-1.1745-0.7217c-0.7443-0.2656-1.5096-0.4596-2.2914-0.5763
	c-0.6608-0.1006-1.3815,0.0441-1.5214,0.8029c-0.0251,0.1208-0.0336,0.2468-0.0347,0.3706c-0.004,0.457-0.0113,0.9144,0.0021,1.3711
	c0.05,1.2228,0.347,1.6668,1.5328,2.027c0.8754,0.235,2.0572,0.4238,2.937,0.2116c0.6001-0.3614,0.7319-1.2737,0.732-1.9135
	C22.4997,490.0066,22.5608,489.4605,22.3269,488.9716z M10.0884,492.4858c1.2154,0.13,2.4679,0.006,3.5823-0.5228
	c0.3461-0.1852,0.5821-0.4682,0.6892-0.8453c0.0563-0.1984,0.108-0.4052,0.1137-0.6095c0.0169-0.6019,0.0264-1.205,0.0071-1.8067
	c-0.0487-1.0516-1.0701-1.0495-1.8749-0.8917c-0.5481,0.1138-1.0885,0.2661-1.6292,0.413
	c-0.3832,0.1041-0.7328,0.2875-1.0724,0.4912c-0.3075,0.1844-0.4794,0.4479-0.512,0.8065
	C9.3324,490.4487,9.2005,491.872,10.0884,492.4858z"/>
<path d="M4.1116,884.9565c-0.1079-1.3074-0.045-2.5739,0.0189-3.8185c0.3815-0.5906,0.807-1.1022,1.2646-1.5866
	c0.2157-0.2283,0.477-0.402,0.7701-0.5225c0.1532-0.063,0.3064-0.1261,0.4779-0.1966c0.1633-0.6016,0.4181-1.1688,0.6606-1.7417
	c0.0781-0.1845,0.0797-0.4034,0.1047-0.608c0.0605-0.495,0.0928-0.9943,0.1754-1.4854c0.3958-2.113,2.721-2.9149,4.5868-3.2658
	c0.3666-0.0729,0.7323-0.157,1.0911-0.2613c0.8646-0.2515,1.7519-0.3693,2.6437-0.4473c0.2855-0.025,0.5791,0.0425,0.8689,0.0685
	c0.8539,0.0767,1.6852,0.2571,2.4994,0.5264c0.2953,0.0977,0.6022,0.1617,0.9061,0.2316c1.7501,0.3643,3.764,1.3138,4.0738,3.2661
	c0.0684,0.3889,0.1094,0.7826,0.161,1.1614c0.3476,0.8327,0.6919,1.6572,1.067,2.5558c0.0533,0.025,0.179,0.0959,0.3129,0.1443
	c0.4221,0.1526,0.7751,0.4025,1.0613,0.7444c0.3074,0.3671,0.6058,0.7417,0.909,1.1124c0.1363,0.1667,0.214,0.3555,0.2234,0.5714
	c0.0503,1.1651,0.0669,2.3301,0.0077,3.5269c-0.5286,0.573-1.0631,1.1573-1.7396,1.5797c-2.7236,1.7159-5.7749,3.007-9.0148,3.2537
	c-4.0602,0.3471-8.0017-1.0878-11.3848-3.2427C5.1936,886.1144,4.674,885.5413,4.1116,884.9565z M23.4379,879.4875
	c-0.0944,0.0297-0.1621,0.0344-0.2088,0.0681c-1.6576,1.092-4.0916,1.1007-5.8779,0.319c-0.6813-0.2961-1.2033-0.7387-1.3732-1.5036
	c-0.0067-0.0302-0.0428-0.0538-0.0648-0.0801c-0.0202,0.0117-0.0471,0.0177-0.0538,0.0327c-0.0336,0.075-0.068,0.1505-0.0911,0.2291
	c-0.1498,0.5089-0.4815,0.8689-0.9355,1.1182c-1.2411,0.6827-2.6613,0.8822-4.0511,0.6728
	c-0.7672-0.1089-1.5121-0.2926-2.1623-0.7475c-0.0463-0.0323-0.1149-0.033-0.1719-0.048c-0.5647,1.4545-0.6131,4.6036-0.0843,6.4063
	c1.8149,1.2676,4.0971,1.7045,6.2668,1.9072c2.8171,0.2922,6.6217-0.3192,8.9673-1.9622c0.4505-2.0137,0.3469-4.0824-0.0011-6.0999
	C23.5792,879.6911,23.4935,879.5934,23.4379,879.4875z M17.3053,875.6629c-0.0106,0.0007-0.0211,0.0013-0.0317,0.002
	c0.1164,1.3923-0.1095,2.4319,1.5408,2.8657c0.768,0.2169,1.5534,0.2707,2.3457,0.2229c0.9663-0.0422,1.1939-0.9838,1.3277-1.7738
	c0.0943-0.5774,0.0241-1.1605-0.0044-1.741c-0.019-0.3877-0.2087-0.6735-0.5519-0.842c-0.3346-0.1642-0.6701-0.3425-1.0253-0.445
	c-0.5771-0.1666-1.1676-0.2922-1.7584-0.4031c-0.827-0.142-1.6906,0.0408-1.8034,0.9329
	C17.2927,874.8737,17.3036,875.2682,17.3053,875.6629z M14.4805,875.7539c-0.0032,0-0.0064,0-0.0096,0
	c0-0.3951,0.023-0.7919-0.0058-1.1848c-0.0654-0.8326-0.8103-1.041-1.5314-0.9683c-0.7504,0.0567-1.4757,0.2482-2.1895,0.4725
	c-0.2944,0.0923-0.57,0.2513-0.8445,0.3978c-0.3161,0.1687-0.4942,0.4404-0.5097,0.8032c-0.0204,0.4775-0.0498,0.9556-0.043,1.4329
	c0.026,0.8884,0.3595,2.0715,1.4424,2.0582c0.9934,0.0258,2.0191-0.0593,2.9079-0.5366c0.3668-0.1907,0.5964-0.513,0.6777-0.9248
	c0.0441-0.2238,0.0878-0.45,0.1015-0.6769C14.4937,876.337,14.4805,876.045,14.4805,875.7539z"/>
<path d="M24.4115,363.1354c0.3644,0.8751,0.7,1.6811,1.0659,2.56c0.0526,0.0251,0.1775,0.0997,0.312,0.1463
	c0.4044,0.1402,0.7421,0.3764,1.0168,0.6991c0.3237,0.3802,0.636,0.7702,0.9539,1.1553c0.1371,0.1661,0.2158,0.3554,0.2248,0.5707
	c0.0489,1.1647,0.073,2.3294,0.0084,3.5209c-0.5213,0.5854-1.0627,1.163-1.7384,1.5843c-3.5817,2.2861-7.8395,3.7469-12.1284,3.177
	c-2.8415-0.3468-5.4708-1.4612-7.8976-2.9333c-0.8129-0.4527-1.4611-1.0959-2.106-1.7975c-0.1286-1.2469-0.0444-2.5134,0.004-3.8097
	c0.4103-0.6091,0.8567-1.2099,1.4145-1.714c0.1961-0.1772,0.4519-0.2909,0.6872-0.4215c0.1258-0.0699,0.2659-0.1141,0.3712-0.1581
	c0.2366-0.5875,0.4537-1.1481,0.6893-1.7008c0.0929-0.218,0.1065-0.4384,0.1257-0.6677c0.0416-0.4966,0.0909-0.9941,0.171-1.4857
	c0.2002-1.225,1.2225-2.1194,2.3147-2.5937c0.3266-0.1348,0.6555-0.2769,0.997-0.3603c1.2116-0.2958,2.427-0.5771,3.6454-0.8436
	c0.4053-0.0886,0.8236-0.1189,1.2367-0.1697c0.1233-0.0152,0.2508-0.0241,0.3737-0.0109c0.9106,0.0984,1.8194,0.206,2.7026,0.468
	c0.478,0.1418,0.961,0.2674,1.4445,0.3893c1.7249,0.3842,3.6986,1.3638,3.9622,3.2999
	C24.3223,362.4091,24.364,362.7814,24.4115,363.1354z M23.442,366.3372c-0.4258,0.1734-0.7693,0.4276-1.1921,0.5739
	c-1.5542,0.4876-3.1055,0.5289-4.6486-0.0716c-0.8132-0.3165-1.4677-0.7757-1.6501-1.6955
	c-0.1502,0.0513-0.1531,0.1653-0.1817,0.2621c-0.1499,0.5074-0.4756,0.8702-0.931,1.1222
	c-1.2282,0.6745-2.6104,0.8833-3.9894,0.6857c-0.7904-0.1094-1.5538-0.2947-2.2266-0.7528
	c-0.0463-0.0316-0.1161-0.0287-0.1731-0.0415c-0.5652,1.3585-0.6103,4.789-0.0825,6.3589c0.2402,0.2503,0.5529,0.4167,0.8707,0.5715
	c1.6044,0.8268,3.3884,1.1458,5.1643,1.3534c0.5979,0.0692,1.2043,0.099,1.8063,0.0923c2.2991-0.0652,4.6359-0.4995,6.6841-1.5814
	c0.2553-0.1364,0.5181-0.2684,0.7276-0.5397c0.271-1.2606,0.3031-2.5919,0.2399-3.8786c-0.0269-0.7056-0.0965-1.4121-0.2581-2.1035
	C23.5751,366.5785,23.5051,366.4745,23.442,366.3372z M17.307,362.5353c-0.0113,0.0007-0.0226,0.0014-0.034,0.0021
	c0.0349,0.476,0.0564,0.9535,0.108,1.4278c0.0667,0.6137,0.413,1.0281,0.9753,1.2673c0.8933,0.3649,1.8663,0.4423,2.8194,0.3838
	c0.9531-0.0519,1.1551-0.9473,1.309-1.7267c0.1144-0.5981,0.0471-1.2018,0.0048-1.8038c-0.0273-0.3889-0.217-0.6586-0.5539-0.8426
	c-0.3667-0.2003-0.7444-0.3749-1.151-0.4715c-0.5456-0.1297-1.0928-0.2567-1.6447-0.3548c-0.2628-0.0468-0.5406-0.0511-0.807-0.0264
	C17.1746,360.5309,17.3025,361.6508,17.307,362.5353z M14.4854,362.5645c-0.0027,0-0.0054,0-0.0081,0
	c0-0.3539,0.0177-0.7089-0.004-1.0614c-0.0281-0.8006-0.7368-1.146-1.4656-1.0589c-0.6951,0.1275-1.392,0.2554-2.0755,0.4324
	c-0.3572,0.0924-0.6979,0.268-1.0276,0.4412c-0.3105,0.1631-0.4906,0.4348-0.5216,0.8008c-0.0919,0.9072-0.1078,1.847,0.2376,2.7063
	c0.201,0.5118,0.5918,0.7856,1.1519,0.8027c0.976,0.038,1.9723-0.0681,2.8598-0.4979c0.3968-0.1876,0.6487-0.5191,0.7391-0.9517
	C14.49,363.6478,14.5009,363.1053,14.4854,362.5645z"/>
<path d="M11.3648,568.3092c-1.3251-0.4865-2.6778-0.8934-4.0076-1.3661c-1.2908-0.4552-2.3157-1.2907-3.2414-2.3359
	c-0.1148-1.2617-0.0525-2.5474,0.0223-3.8322c0.533-0.7142,1.2032-1.7516,2.0278-2.0925c0.1147-0.0465,0.2246-0.1046,0.3703-0.1733
	c0.2079-0.7704,0.5272-1.5126,0.9239-2.1691c-0.0174-1.3457-0.0596-2.6517,0.9545-3.6763c1.3303-1.3198,3.2577-1.8105,5.0704-2.004
	c0.4984-0.034,0.9478,0.0619,1.4438,0.1829c0.6548-0.1096,1.3383-0.1618,2.0414-0.0159c0.8294-0.2844,1.6723-0.1736,2.5158,0.0002
	c1.4149,0.3,2.8619,0.7731,3.8986,1.831c0.9335,0.9004,0.9132,2.0405,1.024,3.2923c0.3865,0.7542,0.9,1.5706,1.0914,2.4692
	c0.0689,0.0713,0.0922,0.1164,0.1268,0.1281c0.9754,0.3161,1.5282,1.1859,2.1347,1.9454c0.1484,0.1862,0.221,0.3961,0.23,0.6335
	c0.0434,1.1446,0.0647,2.2889,0.004,3.4422c-0.8329,0.9902-1.7956,1.8154-3.0127,2.2657c-1.2678,0.4689-2.562,0.8674-3.8499,1.2803
	c-0.4331,0.1388-0.8597,0.3146-1.3229,0.3447c-0.1244,0.0081-0.2489,0.0455-0.372,0.0399
	c-0.9198-0.0417-1.8238,0.1409-2.7377,0.1843c-1.0224,0.0486-2.0392,0.0167-3.0516-0.1407
	c-0.4533-0.0622-0.9171-0.0131-1.3714-0.0518c-0.3103-0.0276-0.6173-0.0909-0.9258-0.1387
	C11.356,568.338,11.3604,568.3236,11.3648,568.3092z M8.3164,564.8498c0.2526,0.2425,0.5364,0.3728,0.8235,0.4946
	c2.1185,0.9007,4.4389,1.1136,6.7142,1.24c2.3957-0.0549,4.8552-0.3481,7.0679-1.3166c0.2481-0.109,0.4876-0.2281,0.6649-0.4047
	c0.5165-1.5777,0.2843-5.3949-0.0816-6.2106c-0.1188-0.1346-0.2449-0.2724-0.4492-0.2761
	c-0.3108,0.1334-0.6127,0.2736-0.9228,0.3927c-0.2322,0.0891-0.4702,0.1875-0.7136,0.2182
	c-0.7836,0.0988-1.569,0.1884-2.3583,0.0193c-0.6736-0.1443-1.3323-0.3262-1.9511-0.636c-0.5238-0.2624-0.9177-0.6393-1.1005-1.2118
	c-0.0203-0.0634,0.0043-0.1745-0.1031-0.1692c-0.042,0.0372-0.0917,0.0593-0.0992,0.0912
	c-0.2964,1.2056-1.6904,1.5875-2.7477,1.8547c-1.4641,0.3427-2.8935,0.1689-4.2385-0.5211
	c-0.0365-0.0137-0.0812-0.0056-0.1441-0.0084c-0.0681,0.0521-0.1495,0.1143-0.2111,0.1614
	C7.9298,559.8007,7.8216,563.2676,8.3164,564.8498z M17.3032,554.3296c-0.0086,0.0005-0.0173,0.0011-0.0259,0.0016
	c0.0279,0.4141,0.0502,0.8286,0.085,1.2421c0.057,0.676,0.4396,1.1105,1.0557,1.3383c0.948,0.3504,1.9332,0.477,2.9416,0.4363
	c0.3922-0.0159,0.6676-0.2073,0.8406-0.551c0.1703-0.3381,0.2804-0.6984,0.2907-1.076c0.013-0.4775-0.0046-0.9558-0.0094-1.4338
	c-0.0037-0.3646-0.175-0.6354-0.4765-0.8257c-0.6911-0.4408-1.4885-0.639-2.2766-0.8146c-0.3427-0.0826-0.6933-0.1412-1.0438-0.1812
	c-0.8312-0.095-1.3968,0.3121-1.3821,1.1776C17.3065,553.8719,17.3032,554.1008,17.3032,554.3296z M14.474,554.4266
	c0.0045,0,0.009,0,0.0134,0c0-0.2913-0.0069-0.5827,0.0014-0.8737c0.014-0.8569-0.835-1.1454-1.5269-1.0015
	c-0.6895,0.1533-1.3816,0.3029-2.0586,0.5016c-0.3542,0.104-0.6843,0.2975-1.0161,0.4686c-0.2977,0.1534-0.4616,0.411-0.4908,0.748
	c-0.0468,0.5396-0.0867,1.0815-0.0066,1.6189c0.0425,0.2851,0.1219,0.5699,0.2245,0.8397c0.1549,0.4073,0.4592,0.6169,0.9111,0.6265
	c0.9239,0.0195,1.8249-0.1053,2.7048-0.383C14.5113,556.5589,14.5125,555.5811,14.474,554.4266z"/>
<path d="M4.1142,52.9816c-0.1104-1.3042-0.0498-2.5712,0.0199-3.8487c0.5965-0.7726,1.1966-1.7715,2.1434-2.1239
	c0.1156-0.0435,0.2283-0.0949,0.3629-0.1513c0.1678-0.6222,0.4335-1.2073,0.6846-1.7989c0.0701-0.1652,0.0715-0.3641,0.0827-0.5489
	c0.0317-0.5195,0.0645-1.0366,0.1779-1.5484c0.3594-1.6679,1.9461-2.5514,3.4754-2.9534c1.276-0.2956,2.5437-0.6318,3.8366-0.8515
	c1.4657-0.2538,2.959,0.048,4.3633,0.4811c0.294,0.0995,0.6097,0.133,0.9087,0.2201c0.5387,0.1571,1.0789,0.3138,1.6061,0.5046
	c1.2167,0.4645,2.2969,1.4821,2.4864,2.8146c0.0598,0.3694,0.1012,0.7419,0.1631,1.2042c0.339,0.7485,0.7559,1.5652,0.9972,2.4552
	c0.1046,0.0499,0.1936,0.106,0.2907,0.1363c0.9396,0.2813,1.4404,1.1625,2.0388,1.8661c0.1496,0.1839,0.2383,0.3909,0.239,0.6296
	c0.0037,1.1242,0.0061,2.2484,0.007,3.3727c0,0.04-0.0204,0.08-0.044,0.1668c-0.5689,0.6082-1.1748,1.2331-1.9412,1.6818
	c-2.7071,1.6278-5.7026,2.8628-8.883,3.0806c-4.012,0.31-7.919-1.1069-11.2716-3.2227C5.1971,54.1373,4.6682,53.5758,4.1142,52.9816
	z M15.8695,46.283c-0.0348,0.0926-0.0751,0.1836-0.1035,0.2781c-0.1818,0.6786-0.7855,1.0654-1.3917,1.3311
	c-1.7391,0.7681-4.1401,0.7284-5.7655-0.3051c-0.0428-0.0299-0.1129-0.0204-0.1665-0.0287
	c-0.5177,1.1408-0.6434,4.8408-0.0741,6.4113c2.2279,1.5104,5.3602,1.952,8.0134,1.9643c2.4992-0.1322,5.1379-0.5844,7.2269-2.0462
	c0.4402-1.9949,0.3211-4.0298,0.0043-6.0303c-0.0182-0.1413-0.0457-0.2918-0.2124-0.3465
	c-0.0431,0.0059-0.0925-0.0019-0.1221,0.0188c-0.6836,0.4754-1.4575,0.6909-2.2695,0.8092
	C19.3251,48.5911,16.4168,48.2168,15.8695,46.283z M22.5587,44.17c-0.1205-1.11,0.1251-1.49-1.077-2.0117
	c-0.8704-0.3597-1.7843-0.5543-2.7163-0.6451c-0.8254-0.0804-1.4521,0.2839-1.4589,1.3446
	c-0.0033,0.5192-0.012,1.0388,0.0016,1.5576c0.0491,1.128,0.2582,1.7108,1.4003,2.0738c0.8046,0.2382,1.6282,0.3173,2.4643,0.2584
	c0.6411-0.0319,1.0172-0.5412,1.189-1.1118C22.5279,45.1789,22.5232,44.698,22.5587,44.17z M14.4852,43.7014
	c-0.0017,0-0.0034,0-0.0052,0c-0.0056-0.374,0.0122-0.7493-0.0084-1.1227c-0.06-0.521-0.3893-0.8853-0.9074-0.9637
	c-0.9579-0.1081-2.1358,0.2372-3.043,0.5459c-0.233,0.0833-0.4531,0.2086-0.6687,0.3327c-0.267,0.1537-0.4327,0.3886-0.4614,0.7013
	c-0.061,0.6634-0.1162,1.3293,0.0026,1.9903c0.1359,0.7552,0.4169,1.5401,1.3122,1.5689c0.9323,0.0394,1.8855-0.0452,2.7544-0.4042
	c0.5143-0.2205,0.8394-0.6022,0.9386-1.1585C14.4977,44.7001,14.4942,44.2002,14.4852,43.7014z"/>
<path d="M4.1079,916.9011c-0.1077-1.2344-0.0371-2.5009,0.0186-3.7662c0.3935-0.5844,0.8103-1.1308,1.3036-1.6094
	c0.2046-0.1987,0.4711-0.3372,0.7202-0.485c0.141-0.0836,0.3037-0.1308,0.4818-0.205c0.1681-0.6394,0.4573-1.2371,0.7108-1.8495
	c0.0609-0.1471,0.0491-0.3251,0.0669-0.4893c0.054-0.4957,0.0859-0.9948,0.1634-1.4867c0.4096-2.2851,2.9864-3.0466,4.9768-3.3906
	c0.2453-0.043,0.4933-0.082,0.7314-0.1522c0.8436-0.2484,1.7101-0.3751,2.5811-0.4348c0.4507-0.0309,0.9127,0.0486,1.3652,0.1108
	c0.6185,0.0851,1.229,0.2153,1.8269,0.403c0.2572,0.0807,0.5246,0.1303,0.7888,0.1874c1.8608,0.3627,4.0921,1.2664,4.4139,3.3745
	c0.0651,0.3894,0.1057,0.7829,0.1659,1.2383c0.3367,0.7566,0.7567,1.55,0.9956,2.4503c0.1136,0.0554,0.2377,0.1294,0.3709,0.1785
	c0.884,0.2977,1.3557,1.1359,1.9363,1.803c0.165,0.1993,0.2575,0.4222,0.2675,0.6837c0.0438,1.1443,0.0555,2.2883,0.0092,3.4554
	c-0.6842,0.7813-1.4521,1.4936-2.3836,1.9767c-3.1854,1.8191-6.8046,3.0856-10.518,2.8318
	c-3.285-0.2073-6.3892-1.4612-9.1771-3.1606C5.3292,918.207,4.6306,917.5552,4.1079,916.9011z M8.3271,917.86
	c1.1844,0.9042,2.8121,1.3825,4.2649,1.6545c2.5388,0.5093,5.1618,0.4647,7.6673-0.1999c0.8458-0.2012,2.8717-0.9038,3.3785-1.5661
	c0.3925-1.9759,0.3059-4.0227-0.0373-6.0007c-0.0212-0.1472-0.082-0.2807-0.2373-0.3093c-0.3657,0.1838-0.7014,0.4105-1.0719,0.5278
	c-1.121,0.3552-2.2672,0.5302-3.4422,0.2903c-1.1027-0.2469-2.4791-0.6085-2.8417-1.8276c-0.02-0.0659,0.0059-0.1685-0.1395-0.1838
	c-0.0293,0.0651-0.0712,0.1339-0.0922,0.2087c-0.2056,0.804-0.9318,1.2017-1.6526,1.4717c-1.6988,0.6636-3.8396,0.586-5.4226-0.3478
	c-0.0639-0.0422-0.1477-0.0542-0.2401-0.0864c-0.3239,0.6556-0.3447,1.3504-0.4046,2.0236
	C7.9283,914.9494,7.9412,916.3831,8.3271,917.86z M17.3087,907.5627c-0.0128,0.0008-0.0255,0.0016-0.0382,0.0024
	c0.0368,0.4969,0.0529,0.9966,0.116,1.4902c0.0709,0.5543,0.3719,0.9636,0.8928,1.1911c0.7586,0.3523,1.6073,0.4331,2.4339,0.4646
	c0.6583,0.0176,1.2888-0.1539,1.5268-0.8279c0.1149-0.3096,0.1913-0.6369,0.2513-0.9625c0.103-0.5582,0.0209-1.1203-0.0004-1.6812
	c-0.0159-0.4169-0.2125-0.7154-0.571-0.8995c-0.3134-0.1611-0.632-0.3264-0.9672-0.427c-0.8746-0.2524-1.7758-0.4877-2.6942-0.4234
	c-0.3823,0.0193-0.664,0.2502-0.8168,0.5941C17.2517,906.5472,17.3137,907.0715,17.3087,907.5627z M14.4848,907.6417
	c-0.0014,0-0.0027,0-0.0041,0c0-0.3333,0.0139-0.6672-0.003-0.9996c-0.0388-1.0254-0.9298-1.2344-1.7893-1.0725
	c-0.5321,0.0959-1.0613,0.2116-1.5869,0.3389c-0.427,0.1035-0.823,0.2917-1.202,0.5138c-0.3091,0.181-0.4966,0.4432-0.5148,0.8054
	c-0.0392,0.9085-0.1565,1.8553,0.2421,2.7079c0.2147,0.5151,0.7056,0.77,1.2481,0.7745c0.9122-0.0052,1.8434-0.0966,2.6831-0.4793
	c0.4412-0.2115,0.7215-0.5588,0.8227-1.0368C14.4963,908.6843,14.4963,908.1616,14.4848,907.6417z"/>
<path d="M24.4282,12.3589c0.3475,0.77,0.7603,1.5657,0.9957,2.452c0.0928,0.0447,0.1814,0.0997,0.2776,0.1316
	c0.9394,0.2833,1.4443,1.154,2.0424,1.8608c0.1341,0.1654,0.2297,0.3474,0.2406,0.5647c0.0594,1.1854,0.0647,2.3705,0.0161,3.5585
	c-0.5629,0.6106-1.1137,1.2096-1.8179,1.6308c-3.2756,1.985-7.0425,3.3956-10.925,3.1784c-3.3325-0.174-6.4807-1.4328-9.3071-3.153
	c-0.5814-0.3483-1.212-0.9264-1.84-1.6577c-0.113-1.2275-0.0389-2.4944,0.0144-3.7965c0.4051-0.5838,0.8379-1.1693,1.3735-1.6661
	c0.1942-0.1802,0.4454-0.3022,0.6793-0.4354c0.1427-0.0813,0.3021-0.1334,0.4125-0.1808c0.2438-0.5996,0.464-1.1595,0.6999-1.7126
	c0.0926-0.2172,0.1085-0.437,0.1256-0.6672c0.037-0.4969,0.0856-0.9946,0.1649-1.4862c0.4209-2.2571,2.9685-3.0056,4.9378-3.3568
	c0.2858-0.0528,0.574-0.1014,0.8528-0.1808c0.8254-0.2348,1.6723-0.3398,2.5217-0.4171c0.2852-0.026,0.579,0.0404,0.8687,0.0657
	c1.0668,0.0702,2.0747,0.4214,3.1119,0.6479c1.8411,0.3658,4.0418,1.2584,4.3785,3.3378
	C24.3207,11.4655,24.3607,11.8593,24.4282,12.3589z M23.4372,15.4015c-0.433,0.2179-0.7683,0.4439-1.138,0.562
	c-1.1204,0.3581-2.2663,0.5292-3.4419,0.295c-1.1241-0.251-2.5325-0.6136-2.8624-1.882c-0.0127-0.0491-0.0466-0.0927-0.071-0.1395
	c-0.0363,0.0205-0.0621,0.0261-0.0702,0.0411c-0.0291,0.054-0.0603,0.1089-0.0763,0.1675c-0.205,0.8292-0.9659,1.2259-1.7046,1.4994
	c-1.6217,0.6298-3.7334,0.5457-5.2583-0.2979c-0.1031-0.0629-0.1964-0.1607-0.3721-0.1159
	c-0.3119,0.6304-0.3318,1.345-0.3906,2.0376c-0.1218,1.4335-0.1115,2.8667,0.2739,4.2709c1.7223,1.4606,5.4953,2.0087,7.729,2.034
	c2.1387,0.0041,5.9528-0.6477,7.5682-2.0906c0.4076-1.9465,0.3275-4.0086-0.0121-5.9652
	C23.5904,15.6848,23.506,15.5613,23.4372,15.4015z M17.3048,11.5558c-0.0102,0.0006-0.0204,0.0013-0.0306,0.0019
	c0.0323,0.4766,0.0495,0.9548,0.1008,1.4293c0.0656,0.6072,0.382,1.0481,0.9543,1.2835c0.9226,0.3794,1.8888,0.4933,2.8743,0.4101
	c0.978-0.0734,1.1454-1.0161,1.2939-1.815c0.0956-0.5381,0.0119-1.0791-0.0062-1.6192c-0.0139-0.4161-0.2047-0.7198-0.5655-0.9025
	c-0.3327-0.1684-0.6718-0.3373-1.0266-0.4455c-0.8333-0.2352-1.6984-0.472-2.5718-0.4185
	c-0.5374,0.0365-0.8727,0.3664-0.9733,0.8934C17.2842,10.7626,17.3064,11.1619,17.3048,11.5558z M14.4836,11.6865
	c-0.0011,0-0.0023,0-0.0034,0c0-0.3541,0.0156-0.7089-0.0034-1.062c-0.0391-0.9778-0.9062-1.2185-1.7443-1.0634
	C12.1602,9.669,11.59,9.7915,11.0246,9.9309c-0.4059,0.1001-0.7803,0.2877-1.14,0.5008c-0.3093,0.1832-0.484,0.4527-0.5022,0.8135
	c-0.0662,1.1326-0.2492,3.2311,1.2615,3.4464c0.7892,0.0652,1.584-0.0533,2.3496-0.2419c0.1799-0.0471,0.3537-0.1232,0.5241-0.1997
	C14.5439,13.8211,14.4957,12.6277,14.4836,11.6865z"/>
<path d="M24.4108,459.039c0.4104,0.7732,0.8908,1.6033,1.1168,2.5362c0.1388,0.0627,0.2509,0.1153,0.3645,0.1642
	c0.33,0.1421,0.6253,0.3381,0.8587,0.6099c0.3524,0.4104,0.6901,0.8333,1.0331,1.2517c0.1378,0.1681,0.193,0.3668,0.2026,0.5795
	c0.0516,1.1442,0.0625,2.2884,0.0164,3.3994c-0.3669,0.5292-1.192,1.2893-1.7896,1.683c-0.6846,0.451-1.4306,0.7627-2.2076,1.0089
	c-1.0511,0.333-2.0912,0.6982-3.1496,1.0119c-0.7114,0.2109-1.4149,0.3127-2.147,0.3044c-0.2067-0.0023-0.4151,0.0161-0.6203,0.0437
	c-1.453,0.1955-2.9054,0.1982-4.3591,0.0079c-0.226-0.0296-0.4551-0.0354-0.6829-0.0513c-0.4563-0.0319-0.9129-0.059-1.3686-0.0973
	c-0.1231-0.0103-0.2545-0.0312-0.3632-0.0853c-0.824-0.4098-1.7295-0.5845-2.5838-0.906c-0.5062-0.1905-1.0253-0.3474-1.5286-0.5449
	c-1.2292-0.4821-2.2227-1.2862-3.0844-2.2836c-0.1141-1.2733-0.0495-2.5398,0.0192-3.8054
	c0.3768-0.5652,0.7866-1.0876,1.2508-1.5674c0.2197-0.2271,0.4729-0.4057,0.7611-0.536c0.1316-0.0595,0.2602-0.1255,0.4056-0.1959
	c0.1941-0.7718,0.5193-1.4901,0.9032-2.1289c-0.0194-1.3838-0.0424-2.7576,1.0457-3.7688c1.2852-1.2101,3.0889-1.6782,4.7992-1.8871
	c0.3079-0.0303,0.6348-0.0463,0.9309,0.0242c0.7704,0.2003,1.5255-0.0799,2.2964,0.0363c0.331,0.0432,0.6597,0.0422,0.9921-0.0341
	c1.227-0.235,3.4654,0.4234,4.5754,1.0014c1.0688,0.5554,2.0218,1.4784,2.1632,2.7236
	C24.3257,458.0064,24.3568,458.4843,24.4108,459.039z M8.3093,467.9559c0.5237,0.5749,2.5386,1.1387,3.3385,1.2821
	c1.7401,0.291,3.503,0.5783,5.2738,0.4558c2.0287-0.1669,4.0782-0.4391,5.9493-1.2845c0.2658-0.116,0.5356-0.2295,0.7694-0.5014
	c0.3659-2.011,0.3225-4.0533-0.0859-6.1269c-0.1409-0.1006-0.2876-0.2054-0.4278-0.3055c-0.6015,0.2809-1.1491,0.5227-1.784,0.6543
	c-1.5807,0.3265-5.0046-0.1272-5.39-2.0265c-0.0361,0.0129-0.0607,0.0148-0.0742,0.028c-0.0287,0.0279-0.0662,0.0583-0.0747,0.0938
	c-0.1605,0.6696-0.6335,1.0475-1.2182,1.3317c-1.7016,0.797-3.7061,0.9722-5.433,0.137c-0.1472-0.0716-0.3021-0.127-0.4308-0.1805
	c-0.1783,0.0649-0.2794,0.1632-0.322,0.3139c-0.0566,0.1999-0.1193,0.3989-0.1607,0.6021
	C7.9061,464.2535,7.8811,466.1403,8.3093,467.9559z M17.3059,457.4457c-0.0105,0.0007-0.021,0.0014-0.0315,0.002
	c0.0333,0.4545,0.0525,0.9107,0.1037,1.3632c0.0638,0.5641,0.3886,0.9504,0.896,1.1837c0.1879,0.0864,0.3828,0.1657,0.5826,0.2162
	c0.7677,0.194,1.5465,0.3101,2.3417,0.2788c0.6235-0.0245,0.8993-0.2157,1.1051-0.8108c0.2721-0.7095,0.1747-1.4745,0.1799-2.2169
	c-0.0038-0.4647-0.2371-0.7816-0.6461-0.9814c-1.079-0.5375-2.2645-0.8471-3.4654-0.9109
	C17.2351,455.6485,17.2788,456.5454,17.3059,457.4457z M9.5376,456.925c-0.0409,0.1262-0.1079,0.2607-0.126,0.4015
	c-0.1095,0.8799-0.1214,1.8087,0.2557,2.6297c0.1438,0.3244,0.4054,0.5106,0.7803,0.5271c0.9436,0.0414,1.8636-0.0771,2.7649-0.3612
	c0.7847-0.2474,1.2186-0.7735,1.2538-1.5939c0.0276-0.6428,0.0323-1.2881,0.0118-1.9311c-0.0422-0.9333-0.9579-1.0548-1.7101-0.907
	c-0.6288,0.1346-1.2568,0.2835-1.8709,0.4726C10.4024,456.3151,9.9256,456.5298,9.5376,456.925z"/>
<path d="M11.308,600.9452c-1.3375-0.5677-2.7504-0.938-4.1099-1.4495c-1.1817-0.4304-2.2028-1.2921-3.0325-2.2061
	c-0.1469-0.731-0.1501-2.7064-0.0059-3.9395c0.503-0.6722,1.1667-1.6985,1.9863-2.0477c0.1331-0.0562,0.2601-0.127,0.3888-0.1906
	c0.138-0.3811,0.2566-0.7584,0.4109-1.1205c0.1545-0.3629,0.3447-0.7106,0.5121-1.0504c-0.0191-0.7076-0.0062-1.3774,0.1328-2.0656
	c0.1205-0.6832,0.4787-1.2339,0.9809-1.7001c1.1974-1.0909,2.8315-1.5287,4.3951-1.7761c0.5792-0.0812,1.1634-0.0861,1.7318,0.0826
	c0.7898-0.1535,1.5765-0.1812,2.3672-0.0576c0.0998,0.0156,0.2071,0.0045,0.3082-0.0117c0.6035-0.0967,1.2015-0.0646,1.8016,0.0417
	c2.0589,0.3797,4.7264,1.2578,5.0843,3.6329c0.0669,0.4729,0.1012,0.9505,0.1584,1.5049c0.3904,0.7607,0.8808,1.5651,1.0581,2.4323
	c0.0884,0.078,0.1147,0.1176,0.1504,0.1301c0.9522,0.3139,1.5037,1.1503,2.0982,1.8955c0.1629,0.2006,0.2577,0.4219,0.2677,0.6839
	c0.0435,1.1447,0.0636,2.2891,0.0063,3.4079c-0.9003,1.1949-2.3244,2.16-3.7656,2.5981c-1.0911,0.3449-2.1501,0.7896-3.268,1.0508
	c-0.7021,0.3159-1.4463,0.3545-2.1999,0.3407c-0.1868-0.0035-0.3763,0.0049-0.5609,0.0323
	c-1.9726,0.3237-3.9443,0.0413-5.9191-0.0463c-0.3099-0.0059-0.6186-0.0787-0.9278-0.1212
	C11.3408,600.9791,11.3244,600.9622,11.308,600.9452z M8.3524,597.6366c0.1785,0.1052,0.382,0.2534,0.6072,0.3518
	c1.5975,0.7344,3.3262,1.0819,5.067,1.2375c0.8689,0.0895,1.7393,0.1735,2.6166,0.1177c2.36-0.175,4.8556-0.4648,6.9149-1.7091
	c0.5011-1.2587,0.3796-5.1906-0.0648-6.3184c-0.0913-0.0634-0.2075-0.144-0.324-0.2249c-0.0953,0.0352-0.177,0.055-0.2489,0.0933
	c-0.7267,0.3878-1.4978,0.5978-2.322,0.6587c-1.2847,0.095-2.4792-0.1973-3.6127-0.775c-0.4819-0.2455-0.8241-0.6265-0.9816-1.158
	c-0.0175-0.0592,0.0141-0.182-0.1543-0.1533c-0.2585,0.8729-0.6904,1.1677-1.4857,1.5312c-1.462,0.6434-3.1685,0.8063-4.6853,0.2458
	c-0.3273-0.1308-0.6522-0.2679-0.9984-0.4103c-0.0768,0.0524-0.16,0.1092-0.2209,0.1508
	C7.915,592.5078,7.8207,596.1545,8.3524,597.6366z M21.6529,590.0809c0.442-0.3055,0.4765-0.3337,0.6191-0.7099
	c0.3183-0.7786,0.2733-1.6382,0.2039-2.4604c-0.033-0.3345-0.1918-0.595-0.4874-0.7526c-0.9789-0.5608-2.0897-0.8201-3.1971-0.9828
	c-0.6833-0.0955-1.3553,0.14-1.461,0.8949c-0.0179,0.1018-0.025,0.2065-0.0256,0.3101c-0.0027,0.4783-0.0128,0.957,0.0032,1.4348
	c0.0331,0.6035,0.1046,1.3246,0.6869,1.653C18.9482,590.0559,20.5224,590.214,21.6529,590.0809z M10.2189,590.0908
	c0.9388,0.108,1.9032-0.015,2.852-0.2796c0.5919-0.1751,1.1954-0.5364,1.3142-1.1931c0.0376-0.1827,0.0856-0.3676,0.0897-0.5523
	c0.0134-0.603,0.0242-1.2068,0.0068-1.8096c-0.0259-1.0077-0.9808-1.1125-1.7859-0.9563c-0.9522,0.2126-1.9202,0.4-2.7771,0.8904
	c-0.3231,0.1603-0.5038,0.4284-0.5241,0.7922c-0.0197,0.3528-0.0469,0.7064-0.0418,1.0592
	C9.3681,588.7307,9.4666,589.7905,10.2189,590.0908z"/>
<path d="M25.5097,429.5521c0.7899,0.2348,1.2976,0.7487,1.7497,1.3329c0.7958,1.0283,0.7205,0.7279,0.7564,2.0851
	c0.0231,0.8733,0.0324,1.7471-0.0195,2.5913c-0.8204,1.1035-2.1526,2.0499-3.472,2.4937c-1.185,0.3903-2.3405,0.8695-3.5527,1.1786
	c-0.6389,0.3042-1.3331,0.2874-2.0144,0.3517c-1.9905,0.2469-3.9887,0.196-5.9822,0.0143
	c-0.3321-0.0223-0.6641-0.0478-0.9954-0.0801c-0.3301-0.0321-0.663-0.0512-0.9421-0.2755c-1.2642-0.4563-2.564-0.8622-3.8307-1.3248
	c-0.6503-0.233-1.2423-0.5928-1.7782-1.0238c-0.4523-0.3638-0.8604-0.7827-1.295-1.1835c-0.1446-1.305-0.0531-2.5905-0.0048-3.8723
	c0.398-0.6083,0.8332-1.1657,1.3421-1.6583c0.1901-0.1841,0.4399-0.309,0.6703-0.4482c0.1229-0.0742,0.2622-0.1212,0.3554-0.1632
	c0.3236-0.7644,0.6306-1.4897,0.9793-2.3135c-0.0311-1.4155-0.0219-2.643,1.155-3.676c1.1852-1.1083,3.8078-1.8501,5.4149-1.7259
	c0.4621,0.0509,0.9147,0.0194,1.3673-0.0515c0.4158-0.0652,0.8281-0.067,1.2431,0.0001c0.3708,0.0599,0.7421,0.0757,1.1194,0.0469
	c0.5626-0.0429,1.1207,0.0092,1.6753,0.126c1.3512,0.2885,2.7447,0.6993,3.7813,1.6591c1.0591,0.9259,1.0576,2.0653,1.1885,3.4048
	C24.8168,427.7781,25.2673,428.5999,25.5097,429.5521z M15.906,428.1942c-0.0393,0.0654-0.0858,0.1137-0.0993,0.1699
	c-0.1728,0.7184-0.6803,1.1286-1.3199,1.3917c-1.9792,0.8616-3.9224,0.8613-5.8496-0.1517
	c-0.0879,0.1043-0.1918,0.184-0.2348,0.2887c-0.5067,1.6237-0.5828,4.5894-0.0564,6.2206c0.1764,0.1078,0.3768,0.2603,0.6006,0.3608
	c0.4166,0.1871,0.8394,0.3663,1.2726,0.5097c3.0026,0.9495,6.2212,1.1235,9.3113,0.5433c1.0742-0.175,2.1043-0.4907,3.106-0.9074
	c0.3444-0.1432,0.6847-0.2968,0.9389-0.5341c0.4609-1.3401,0.3864-5.0254-0.0918-6.3022c-0.0778-0.0568-0.1769-0.1289-0.2857-0.2083
	c-1.9303,1.0636-4.2193,1.0572-6.1653,0.0415C16.3525,429.2786,16.1868,428.8873,15.906,428.1942z M21.627,428.5999
	c0.37-0.1677,0.561-0.4367,0.6673-0.7613c0.0836-0.2551,0.1696-0.5207,0.1825-0.7852c0.0261-0.5382,0.0111-1.079-0.0017-1.6184
	c-0.008-0.3362-0.1774-0.5982-0.4612-0.7692c-0.248-0.1495-0.5047-0.2903-0.7714-0.402c-0.6358-0.2663-1.311-0.3959-1.9851-0.5197
	c-0.8448-0.1835-1.8514-0.1705-1.9325,0.9084c-0.0444,0.7449-0.0618,1.4937,0.0355,2.2401c0.0833,0.6386,0.4163,1.0703,1.005,1.3139
	c0.1151,0.0476,0.2288,0.1028,0.3483,0.1352C19.6846,428.6043,20.6674,428.7287,21.627,428.5999z M10.201,428.6035
	c1.13,0.1185,2.4531-0.0045,3.4709-0.521c0.3653-0.1942,0.6065-0.5003,0.7035-0.9081c0.0384-0.1613,0.0876-0.3253,0.091-0.4888
	c0.0137-0.6651,0.0312-1.3312,0.0088-1.9956c-0.0502-0.9775-1.0067-1.0343-1.7757-0.8982
	c-0.9627,0.1706-1.9181,0.3943-2.7766,0.8806c-0.3396,0.1718-0.5285,0.4638-0.5328,0.8542
	c-0.0057,0.5192-0.0292,1.0399,0.0021,1.557c0.0173,0.2845,0.116,0.5681,0.206,0.8429
	C9.6912,428.21,9.8651,428.4422,10.201,428.6035z"/>
<path d="M4.1481,629.6606c-0.125-0.7871-0.1244-2.6257,0.0037-3.9002c0.3854-0.543,0.8151-1.1282,1.3442-1.634
	c0.2917-0.2789,0.6551-0.437,1.0397-0.5857c0.2366-0.3229,0.2421-0.7419,0.4197-1.0931c0.178-0.3521,0.3342-0.7151,0.4937-1.0599
	c-0.0652-1.2662,0.0612-2.6478,1.0235-3.5593c1.2378-1.2456,3.6443-1.8488,5.3724-1.8523c0.1644,0.0034,0.3317-0.0272,0.4941-0.06
	c1.1166-0.2254,2.2322-0.2321,3.3503-0.0093c0.203,0.0404,0.4116,0.062,0.6186,0.0719c1.6453,0.1115,3.6127,0.5954,4.8706,1.7005
	c1.0631,0.911,1.1097,1.9892,1.2455,3.3316c0.3489,0.7457,0.817,1.5601,1.033,2.4443c0.091,0.0595,0.1384,0.1072,0.1951,0.125
	c0.9813,0.3029,1.5231,1.192,2.1299,1.9474c0.1198,0.1516,0.1935,0.3209,0.2031,0.5142c0.0584,1.1852,0.0658,2.3702,0.015,3.5604
	c-0.9251,1.0768-2.0416,1.9237-3.3751,2.4156c-1.7769,0.6424-3.529,1.4057-5.4028,1.7204
	c-1.4811,0.2734-2.9763,0.3952-4.4768,0.2473c-1.0343-0.102-2.0607-0.2855-3.0901-0.4358c-0.2054-0.03-0.403-0.0734-0.5802-0.2067
	c-0.1117-0.0839-0.2655-0.1129-0.4018-0.1625c-1.2121-0.4414-2.4365-0.8522-3.6314-1.336
	C5.9373,631.3642,4.9204,630.5718,4.1481,629.6606z M8.3095,630.2356c1.8066,1.5209,6.378,2.0425,8.7196,1.8847
	c2.027-0.1573,4.0767-0.5129,5.9051-1.4382c0.241-0.1226,0.4843-0.2423,0.6691-0.4706c0.0743-0.2034,0.1187-0.4374,0.1436-0.6569
	c0.2261-1.5995,0.1606-3.1974-0.0345-4.7937c-0.0251-0.2059-0.0748-0.4096-0.1261-0.6111
	c-0.0432-0.1697-0.1405-0.2996-0.3411-0.3381c-1.8255,1.0383-4.0925,1.1009-5.9907,0.2107
	c-0.6372-0.2882-1.1158-0.7206-1.2782-1.4347c-0.006-0.0264-0.048-0.0447-0.0724-0.066c-0.0205,0.0134-0.0428,0.0208-0.0532,0.0363
	c-0.0229,0.034-0.0488,0.0699-0.0576,0.1086c-0.2525,1.3008-2.2858,1.85-3.4258,1.9549c-1.2436,0.0983-2.4523-0.0672-3.5655-0.6876
	c-0.0872-0.0485-0.1755-0.1174-0.2864-0.0654c-0.2368,0.4096-0.2907,0.5897-0.4037,1.5457
	C7.9201,627.0363,7.9172,628.6508,8.3095,630.2356z M22.5203,620.4348c-0.0108-0.2322-0.0179-0.5444-0.0419-0.8553
	c-0.0276-0.3569-0.1972-0.6348-0.5186-0.8006c-0.2766-0.1426-0.551-0.3064-0.8463-0.3926
	c-0.6377-0.1864-1.2851-0.3432-1.9348-0.4829c-0.2607-0.056-0.5379-0.0463-0.8076-0.0463
	c-0.6441,0.0177-1.0717,0.5291-1.0608,1.1529c-0.0125,0.5823-0.0101,1.1652,0.0012,1.7476c0.004,0.2065,0.0432,0.4139,0.0825,0.6179
	c0.0875,0.4541,0.3231,0.8143,0.7404,1.0239c0.2583,0.1296,0.5293,0.2591,0.8093,0.3151c0.5491,0.1097,1.1071,0.1791,1.6641,0.2424
	c0.2247,0.0255,0.4571,0.0013,0.6845-0.0179c0.4332-0.0367,0.732-0.2765,0.9169-0.6591c0.0719-0.1487,0.1201-0.3096,0.1725-0.4671
	C22.5222,621.3902,22.5095,620.951,22.5203,620.4348z M14.482,619.9253c-0.0004,0-0.0008,0-0.0013,0
	c0-0.3333,0.016-0.6675-0.0037-0.9995c-0.0322-0.8455-0.8361-1.1056-1.5634-0.9857c-0.6738,0.1284-1.345,0.2781-2.0071,0.4569
	c-0.3177,0.0859-0.6189,0.2437-0.9162,0.3917c-0.3829,0.1907-0.6013,0.5002-0.6118,0.9427
	c-0.0606,1.0462-0.1977,3.1485,1.264,3.2244c0.1869,0.0104,0.3772,0.024,0.5617,0.0014c0.8187-0.1171,1.6751-0.139,2.4218-0.5323
	C14.5661,621.9893,14.4878,620.8043,14.482,619.9253z"/>
<path d="M24.4247,395.0865c0.1745,0.3575,0.3899,0.7621,0.5715,1.1814c0.1811,0.418,0.3282,0.8507,0.4934,1.2854
	c0.071,0.0381,0.1399,0.0883,0.2169,0.1141c0.9315,0.3023,1.4492,1.1533,2.0354,1.8713c0.1494,0.1848,0.2335,0.392,0.2439,0.6287
	c0.0509,1.1644,0.0698,2.3286,0.0063,3.5255c-0.5481,0.5573-1.085,1.1364-1.7606,1.5619c-0.5283,0.3328-1.0693,0.6352-1.6645,0.8456
	c-2.14,0.7892-4.2808,1.685-6.5744,1.8943c-2.1318,0.3207-4.2866-0.0033-6.3903-0.3796c-0.0816-0.0148-0.1651-0.0323-0.2408-0.0645
	c-1.32-0.5625-2.6963-0.9755-4.0231-1.5209c-0.8359-0.3437-1.6056-0.7874-2.2741-1.3965c-0.3222-0.2935-0.6274-0.6057-0.9378-0.907
	c-0.1306-1.3121-0.0499-2.5982,0.0075-3.9083c0.6691-0.7718,1.1966-1.7851,2.2111-2.1335c0.077-0.0277,0.1476-0.0732,0.2409-0.1205
	c0.1224-0.342,0.2354-0.6976,0.3767-1.0414c0.1422-0.3459,0.3127-0.6801,0.4622-1.0011c0.0166-1.786,0.0966-3.1161,1.7253-4.1694
	c1.3658-0.8502,2.9678-1.2382,4.5675-1.3123c0.3106-0.0101,0.62-0.0627,0.9295-0.1003c0.413-0.0502,0.8247-0.1389,1.2383-0.1481
	c1.0113,0.0219,2.0327,0.196,3.0387,0.313c2.1263,0.2966,4.9767,1.1709,5.3391,3.6244
	C24.3269,394.1392,24.3625,394.554,24.4247,395.0865z M23.6154,404.3003c0.3155-1.4403,0.3263-2.9032,0.2082-4.3632
	c-0.0457-0.5583-0.1482-1.1122-0.2319-1.6671c-0.0299-0.1981-0.1265-0.3491-0.351-0.3807
	c-0.2635,0.1284-0.5198,0.2643-0.7849,0.3802c-1.7712,0.7146-3.8152,0.5843-5.488-0.3165c-0.5587-0.2741-0.8478-0.762-1.0232-1.3459
	c-0.0293,0.0106-0.0541,0.0125-0.0674,0.0258c-0.0282,0.0285-0.0646,0.0595-0.0731,0.0954
	c-0.1585,0.6663-0.6118,1.078-1.2033,1.3458c-2.0191,0.9397-4.0617,0.8745-6.0403-0.1682c-0.2169,0.307-0.2317,0.3523-0.3117,0.7531
	c-0.2544,1.2739-0.3077,2.5608-0.2187,3.8522c0.0427,0.6194,0.0945,1.2435,0.3066,1.8391c1.9465,1.3918,4.7679,1.7035,7.0956,1.8741
	C17.6598,406.3538,21.865,405.7098,23.6154,404.3003z M17.284,394.0676c0.0871,1.3827-0.0412,2.3014,1.6007,2.7198
	c0.7715,0.2073,1.5583,0.257,2.3535,0.2297c0.8231-0.0147,1.0685-0.7567,1.2162-1.4352c0.1194-0.6603,0.0809-1.3282,0.0182-1.993
	c-0.0269-0.2857-0.1606-0.5233-0.4086-0.6679c-0.8367-0.5291-1.8056-0.7404-2.7664-0.9136
	c-0.1632-0.0329-0.3282-0.0701-0.4934-0.076c-0.6764-0.0513-1.3754,0.1401-1.4619,0.9125
	C17.297,393.2144,17.3044,393.5912,17.284,394.0676z M10.2668,396.9783c0.6203,0.0842,1.282,0.0577,1.9409-0.0458
	c0.887-0.1277,1.9907-0.4187,2.1834-1.4356c0.0356-0.1617,0.0776-0.3262,0.0803-0.49c0.011-0.6644,0.0269-1.3298,0.0044-1.9935
	c-0.0523-1.0368-1.0405-1.0942-1.8601-0.9535c-0.9309,0.1875-1.894,0.3487-2.7213,0.8438
	c-0.3082,0.1813-0.4896,0.4422-0.5063,0.8058c-0.0181,0.394-0.0493,0.7882-0.0476,1.1822
	C9.3657,395.6584,9.4703,396.5989,10.2668,396.9783z"/>
<path d="M14.4291,245.6878c-0.2732-0.0364-0.5384-0.0937-0.8049-0.1007c-0.2433-0.0064-0.4881,0.0416-0.7538,0.0678
	c-0.028-0.0834-0.0726-0.1574-0.0749-0.2327c-0.0187-0.6209-0.0379-1.242-0.0397-1.8631c-0.034-0.8962,1.1735-1.2488,1.6003-0.4444
	c0.0722,0.1436,0.12,0.3145,0.1244,0.4745c0.0178,0.6415,0.016,1.2836,0.0157,1.9255
	C14.4962,245.5707,14.454,245.6266,14.4291,245.6878z"/>
<path d="M18.9168,245.5962c-0.7843-0.0781-0.8325-0.0647-1.5928,0.1795c-0.0287-0.1029-0.0662-0.176-0.067-0.2496
	c-0.0068-0.6437-0.0044-1.2875-0.0106-1.9312c-0.0021-0.2147,0.0394-0.4171,0.1622-0.5907
	c0.3666-0.5779,1.2752-0.4899,1.4962,0.1688c0.0425,0.1152,0.0761,0.2413,0.0772,0.3628c0.0056,0.6228,0.0007,1.2456-0.0054,1.8684
	C18.9761,245.4621,18.9416,245.5199,18.9168,245.5962z"/>
<path d="M18.9045,277.2957c-0.5781-0.1657-1.0752-0.0334-1.5504,0.1458c-0.043-0.0601-0.0857-0.0921-0.0861-0.1245
	c-0.0088-0.7261-0.0249-1.4525-0.0129-2.1783c0.0059-0.3564,0.1879-0.6306,0.5231-0.7831c0.6565-0.274,1.2013,0.2278,1.2048,0.8911
	c0.0115,0.5808,0.0049,1.1621-0.0012,1.7431C18.9811,277.0678,18.9438,277.1455,18.9045,277.2957z"/>
<path d="M14.4254,277.3582c-0.3503-0.0765-0.6916-0.123-1.0474-0.1031c-0.1601,0.0079-0.3187,0.0463-0.5128,0.0766
	c-0.0305-0.1358-0.0754-0.2504-0.0791-0.3662c-0.0178-0.5588-0.03-1.118-0.0314-1.677c-0.0049-0.4722,0.2684-0.9269,0.7767-0.9521
	c0.5512-0.067,0.934,0.3958,0.9495,0.9137c0.0176,0.6415,0.015,1.2836,0.0144,1.9254
	C14.4953,277.2304,14.4545,277.2852,14.4254,277.3582z"/>
<path d="M18.8925,213.7039c-0.778-0.0717-0.8345-0.0586-1.591,0.1837c-0.0205-0.1596-0.0479-0.2783-0.0491-0.3972
	c0.0031-0.6647-0.0237-1.3333,0.0078-1.9965c0.1453-0.9627,1.4728-1.0392,1.6947-0.0705c0.0523,0.742,0.087,1.4929-0.0203,2.2349
	C18.9321,213.6741,18.909,213.6867,18.8925,213.7039z"/>
<path d="M14.4544,213.8034c-0.3032-0.0446-0.5681-0.1093-0.8344-0.1151c-0.2421-0.0054-0.4856,0.0532-0.7516,0.0865
	c-0.0285-0.0878-0.0719-0.1621-0.0741-0.2376c-0.0183-0.6223-0.0356-1.2448-0.039-1.8673
	c-0.0018-0.3322,0.1365-0.6051,0.4284-0.7816c0.4083-0.2469,0.9505-0.0955,1.1744,0.3325c0.0566,0.1082,0.0903,0.232,0.115,0.3527
	C14.5144,211.7751,14.497,213.4314,14.4544,213.8034z"/>
<path d="M17.2836,308.8272c-0.0663-0.7068-0.0222-1.4061-0.0365-2.1136c-0.0008-0.1881,0.0147-0.3702,0.1058-0.5414
	c0.312-0.6639,1.3338-0.6151,1.5548,0.0911c0.0416,0.115,0.0733,0.2408,0.0745,0.3621c0.006,0.6205,0.002,1.2411-0.0033,1.8616
	c-0.0005,0.0583-0.0342,0.1164-0.0562,0.1864c-0.2857-0.0098-0.568-0.0285-0.8502-0.0264
	C17.8064,308.6491,17.584,308.8684,17.2836,308.8272z"/>
<path d="M14.428,308.7698c-0.5129-0.0696-1.0026-0.2354-1.5083,0.0365c-0.055-0.1347-0.1198-0.2227-0.1229-0.3128
	c-0.0218-0.6208-0.0352-1.2421-0.0397-1.8633c0.0129-0.4673,0.355-0.9025,0.8484-0.889c0.5208-0.0246,0.8686,0.4429,0.8774,0.9306
	c0.0129,0.6418,0.0115,1.2838,0.012,1.9258C14.4949,308.6355,14.4665,308.6735,14.428,308.7698z"/>
<path d="M18.9288,181.6033c-0.8146-0.0605-0.8575-0.0576-1.6303,0.19c-0.0195-0.1338-0.0454-0.2314-0.0461-0.3291
	c-0.0047-0.6-0.0086-1.2-0.0012-1.7999c0.002-0.1625,0.0189-0.3334,0.0728-0.4849c0.2731-0.7612,1.3608-0.7305,1.5962,0.045
	c0.0371,0.1167,0.0635,0.2423,0.0646,0.3641c0.0053,0.5998,0.0016,1.1998-0.0029,1.7996
	C18.9814,181.4476,18.9534,181.5069,18.9288,181.6033z"/>
<path d="M14.4365,181.6967c-0.2883-0.0361-0.5543-0.0909-0.8214-0.0966c-0.243-0.0052-0.4872,0.0431-0.7495,0.0697
	c-0.0274-0.0887-0.0693-0.1642-0.0715-0.2408c-0.0179-0.6223-0.0371-1.2448-0.0376-1.8672
	c-0.0314-0.8978,1.1896-1.2465,1.6056-0.4349c0.0706,0.1448,0.1154,0.3164,0.1195,0.4771c0.0164,0.6429,0.013,1.2864,0.0139,1.9297
	C14.4955,181.5717,14.4689,181.6098,14.4365,181.6967z"/>
<path d="M18.9885,724.6081c-0.0075,0.4698,0.0586,0.9672-0.1208,1.4127c-0.4093,0.8301-1.648,0.568-1.6163-0.4142
	c-0.0017-0.6431-0.0035-1.2861-0.002-1.9291c0.0003-0.103,0.0048-0.2089,0.0286-0.3083c0.1884-0.8423,1.406-0.8995,1.6426-0.0595
	c0.1112,0.421,0.0627,0.8672,0.0706,1.2986C18.9903,724.6081,18.9894,724.6081,18.9885,724.6081z"/>
<path d="M14.5085,724.6503c0,0.2691,0.0003,0.5382-0.0001,0.8073c0.0466,0.5448-0.1764,1.0422-0.7488,1.0847
	c-0.6291,0.047-0.9693-0.4474-0.9703-1.0302c-0.0164-0.6-0.0335-1.2002-0.0329-1.8004c0.0002-0.1606,0.0345-0.3337,0.1012-0.4791
	c0.2655-0.6568,1.2627-0.6509,1.5234,0.0062c0.0652,0.1469,0.0944,0.318,0.1026,0.48c0.0156,0.3098,0.0045,0.6208,0.0045,0.9313
	C14.4949,724.6503,14.5017,724.6503,14.5085,724.6503z"/>
<path d="M17.4865,146.8274c0.5875,0.1299,1.0503,0.4734,1.5258,0.7884c0.0437,0.5454,0.0596,1.0562-0.0138,1.5855
	c-0.3032,0.0983-0.5943-0.0014-0.8759,0.0397c-0.2838,0.0414-0.5689,0.0739-0.8439,0.109
	c-0.0317-0.0583-0.0677-0.0941-0.0684-0.1304c-0.0105-0.6006-0.0241-1.2013-0.0193-1.8018
	C17.1927,147.2114,17.2374,147.0031,17.4865,146.8274z"/>
<path d="M12.7358,149.2079c-0.03-0.5125-0.0985-1.0252-0.0221-1.5265c0.5989-0.349,1.1831-0.5304,1.7116-0.5371
	c0.1398,0.124,0.1277,0.2969,0.1395,0.4596c0.0646,0.8896,0.0487,1.3642-0.063,1.7514c-0.1965-0.0206-0.3989-0.0471-0.6022-0.0614
	c-0.1861-0.0131-0.3736-0.0056-0.5595-0.0205C13.1433,149.2576,12.9305,149.377,12.7358,149.2079z"/>
<path d="M14.5062,756.567c0,0.3314,0.0052,0.6629-0.0016,0.9941c-0.0204,0.9481-1.3454,1.1007-1.6426,0.2171
	c-0.0379-0.1169-0.0616-0.2431-0.0653-0.3658c-0.0196-0.6417-0.0329-1.2835-0.0425-1.9254
	c-0.0192-0.4929,0.3803-0.9495,0.875-0.9317c0.3613,0.0048,0.6771,0.2297,0.7898,0.5917c0.0482,0.155,0.0626,0.3245,0.068,0.4881
	c0.0103,0.3103,0.003,0.6213,0.003,0.9319C14.4953,756.567,14.5007,756.567,14.5062,756.567z"/>
<path d="M18.9897,756.4464c-0.0045,0.4504,0.0479,0.9237-0.1088,1.3542c-0.3306,0.796-1.5227,0.6663-1.6219-0.2238
	c-0.023-0.6837-0.0007-1.3701-0.0125-2.0547c-0.0377-0.5344,0.359-1.0663,0.9227-1.0123c0.3319,0.0262,0.5948,0.2,0.7157,0.5197
	c0.1591,0.4517,0.0981,0.946,0.1058,1.4169C18.9904,756.4464,18.9901,756.4464,18.9897,756.4464z"/>
<path d="M17.2484,788.0936c0-0.3112-0.0116-0.6231,0.0048-0.9335c0.0085-0.1614,0.0396-0.3328,0.1075-0.4777
	c0.2703-0.6492,1.2962-0.6068,1.5262,0.0508c0.0615,0.1497,0.0944,0.3209,0.0973,0.4832c0.0108,0.6015,0.0069,1.2034,0.0006,1.805
	c0.0005,0.5753-0.4057,1.0722-1.0078,0.9984c-0.4041-0.0433-0.6949-0.3522-0.719-0.806c-0.0198-0.3724-0.004-0.7467-0.004-1.1202
	C17.252,788.0936,17.2502,788.0936,17.2484,788.0936z"/>
<path d="M14.5041,788.2412c0,0.3522,0.0215,0.7061-0.0048,1.0563c-0.0606,0.9604-1.4059,1.031-1.6472,0.144
	c-0.0319-0.1193-0.0555-0.2441-0.0591-0.3672c-0.018-0.6213-0.0302-1.2428-0.0391-1.8643c-0.0253-0.49,0.3642-0.9612,0.8517-0.9608
	c0.375-0.0075,0.7161,0.2446,0.8268,0.6309c0.0393,0.137,0.0467,0.2849,0.0552,0.4286c0.013,0.3102,0.0031,0.6218,0.0059,0.9324
	C14.497,788.2412,14.5006,788.2412,14.5041,788.2412z"/>
<path d="M17.5942,694.322c-0.2751-0.242-0.343-0.4739-0.3432-0.7338c-0.0004-0.6651-0.0024-1.3301-0.0011-1.9952
	c0.0002-0.0825,0.0068-0.1671,0.0258-0.247c0.2001-0.8533,1.3776-0.9167,1.6432-0.0678c0.0426,0.1367,0.0659,0.2847,0.0676,0.4279
	c0.0071,0.5818,0.0059,1.1638,0.0007,1.7457c-0.0027,0.2975-0.066,0.5768-0.3155,0.8037
	C18.318,694.3595,17.947,694.2964,17.5942,694.322z"/>
<path d="M14.1716,694.3518c-0.2856,0-0.6142,0-0.9872,0c-0.3519-0.1591-0.3878-0.6495-0.4036-1.0057
	c-0.0137-0.5193-0.0264-1.0389-0.027-1.5583c-0.0217-0.5607,0.259-1.0624,0.8667-1.0662c0.3716-0.0003,0.6786,0.2162,0.7995,0.5793
	c0.0387,0.1164,0.0624,0.243,0.0648,0.3655c0.0128,0.6649,0.0179,1.3301,0.0231,1.9951
	C14.5097,693.9233,14.4303,694.1517,14.1716,694.3518z"/>
<path d="M18.9254,339.962c-0.8069-0.0814-0.8486-0.0867-1.6068,0.1568c-0.0271-0.0919-0.0583-0.1494-0.0588-0.2072
	c-0.0063-0.6833-0.0084-1.3666-0.0102-2.0499c-0.0115-0.4551,0.3355-0.8626,0.7784-0.8891c0.5809-0.056,0.9545,0.4236,0.9563,0.9751
	c0.0048,0.6004,0.0013,1.2009-0.0035,1.8013C18.9804,339.8083,18.951,339.8673,18.9254,339.962z"/>
<path d="M14.4325,340.027c-0.4977-0.0505-1.0091-0.205-1.4809,0.0124c-0.1475-0.0729-0.1579-0.1809-0.1605-0.2828
	c-0.0154-0.6029-0.0305-1.2059-0.0362-1.8089c-0.0031-0.331,0.1175-0.6103,0.402-0.8c0.6019-0.3942,1.3092,0.0602,1.3241,0.7481
	c0.0147,0.6652,0.0137,1.3307,0.0146,1.9961C14.4957,339.9286,14.4624,339.9653,14.4325,340.027z"/>
<path d="M14.5086,819.8976c-0.0068,0.3723,0.017,0.749-0.0142,1.1194c-0.1424,0.8796-1.3256,0.9595-1.6263,0.1383
	c-0.0445-0.1364-0.0705-0.2839-0.0751-0.4274c-0.0198-0.6219-0.0341-1.2443-0.0371-1.8665
	c0.0047-0.5136,0.3188-0.9415,0.8533-0.9588c0.3483-0.0224,0.6888,0.2205,0.804,0.5735c0.1284,0.4564,0.0633,0.9515,0.0763,1.4214
	C14.496,819.8976,14.5023,819.8976,14.5086,819.8976z"/>
<path d="M17.248,819.7794c0-0.3116-0.0099-0.6236,0.0041-0.9346c0.0073-0.1624,0.0288-0.335,0.0925-0.4819
	c0.1458-0.3367,0.4218-0.5106,0.7905-0.4969c0.6118,0.0122,0.8533,0.5486,0.8519,1.0928c0.0115,0.5398,0.0093,1.0801,0.0006,1.6201
	c-0.0027,0.164-0.0236,0.3334-0.0713,0.4897c-0.2611,0.8809-1.5851,0.7969-1.6569-0.1678
	c-0.0223-0.3718-0.0008-0.7481-0.0074-1.1213C17.2505,819.7794,17.2493,819.7794,17.248,819.7794z"/>
<path d="M12.3202,116.8131c-0.0225-0.1006-0.0394-0.1759-0.0549-0.2448c0.0514-0.0326,0.0848-0.0719,0.1198-0.0734
	c0.8034-0.0334,1.6069-0.064,2.4105-0.0906c0.0788-0.0026,0.1586,0.0245,0.2713,0.0433c-0.0073,0.1077-0.0135,0.2-0.0191,0.2821
	C14.5944,116.854,13.082,116.9015,12.3202,116.8131z"/>
<path d="M19.3887,116.3716c-0.0171,0.092-0.0345,0.1848-0.0503,0.2699c-0.0797,0.0331-0.1354,0.0738-0.1935,0.0777
	c-0.7258,0.0493-1.4523,0.0523-2.2124,0.035c-0.0452-0.1108-0.0878-0.2151-0.1319-0.3232
	C17.2571,116.31,18.9099,116.2711,19.3887,116.3716z"/>
<path d="M17.2481,851.4944c0-0.3116-0.0034-0.6233,0.0017-0.9348c0.002-0.1236,0.0063-0.2515,0.0384-0.3696
	c0.1975-0.7823,1.3334-0.8305,1.6041-0.084c0.0565,0.1527,0.0891,0.3224,0.0922,0.4852c0.011,0.5815,0.0089,1.1633,0.0019,1.7448
	c0.0091,0.5766-0.35,1.0966-0.9615,1.0507c-0.4065-0.0297-0.7243-0.3346-0.7631-0.7711c-0.0293-0.3713-0.0028-0.748-0.0094-1.1212
	C17.251,851.4944,17.2495,851.4944,17.2481,851.4944z"/>
<path d="M14.5091,851.5754c-0.0087,0.3922,0.0231,0.7906-0.0216,1.1802c-0.0689,0.3682-0.3595,0.6281-0.7255,0.6637
	c-0.6562,0.0397-0.9641-0.4316-0.9709-1.0278c-0.0204-0.6008-0.0346-1.2021-0.0339-1.8032c0.0002-0.1609,0.0346-0.334,0.1006-0.48
	c0.272-0.6765,1.3195-0.6611,1.549,0.048c0.1378,0.4567,0.0693,0.9481,0.0827,1.4191
	C14.4959,851.5754,14.5025,851.5754,14.5091,851.5754z"/>
<path d="M18.9062,661.4651c-0.5266,0.0262-0.9987,0.0497-1.5492,0.077c-0.0642-0.0203-0.0994-0.1363-0.1002-0.2668
	c-0.004-0.7043-0.009-1.4086-0.0041-2.1129c0.0008-0.1206,0.0303-0.2479,0.0761-0.3602c0.2542-0.7027,1.2852-0.6963,1.553-0.0079
	c0.0563,0.1304,0.0966,0.2787,0.0984,0.4196c0.0084,0.6626,0.003,1.3253-0.0037,1.988
	C18.9756,661.2801,18.9359,661.3579,18.9062,661.4651z"/>
<path d="M14.448,661.5143c-0.5736-0.007-0.9857,0.0024-1.5549,0.0364c-0.0339-0.1199-0.0902-0.2325-0.0942-0.347
	c-0.0225-0.6413-0.0402-1.283-0.041-1.9245c0.0069-0.5339,0.3541-0.9783,0.9176-0.9473c0.4894,0.0003,0.807,0.4557,0.8095,0.9255
	c0.0112,0.683,0.0145,1.3663,0.0164,2.0495C14.5015,661.3651,14.4723,661.4234,14.448,661.5143z"/>
<path d="M12.2602,84.1628c0.1312-0.023,0.2303-0.0527,0.3303-0.056c0.7844-0.0255,1.569-0.0467,2.3536-0.0651
	c0.0341-0.0008,0.0692,0.0387,0.1373,0.0794c-0.0159,0.0789-0.0344,0.1705-0.0503,0.2491
	c-0.5132,0.1206-2.1003,0.1615-2.7079,0.0691C12.3061,84.3646,12.2857,84.2752,12.2602,84.1628z"/>
<path d="M16.8955,84.3465c-0.0366-0.1022-0.0637-0.1781-0.0876-0.2449c0.0384-0.0441,0.0588-0.0901,0.0897-0.0987
	c0.0786-0.022,0.1617-0.0365,0.2433-0.0378c0.6449-0.0106,1.2898-0.0198,1.9347-0.023c0.0974-0.0005,0.195,0.032,0.3306,0.0559
	c-0.033,0.1231-0.0577,0.215-0.0786,0.2931C18.8552,84.3964,17.5963,84.4257,16.8955,84.3465z"/>
<path d="M18.9287,530.4213c-0.7197-0.0965-0.7197-0.0965-1.5677,0.0701c-0.1102-0.0576-0.1048-0.1675-0.1056-0.2665
	c-0.0052-0.624-0.0059-1.248-0.0079-1.8719c-0.0194-0.4769,0.2805-0.8806,0.7389-0.9199c0.6044-0.0588,0.9966,0.4451,0.995,1.0221
	c0.0083,0.5822,0.0048,1.1646,0.0015,1.7468C18.9827,530.2609,18.9548,530.3198,18.9287,530.4213z"/>
<path d="M12.8642,530.4976c-0.0294-0.1221-0.0696-0.2169-0.0723-0.3128c-0.0166-0.5811-0.0305-1.1624-0.0336-1.7437
	c-0.002-0.381,0.1504-0.6855,0.4996-0.8688c0.6117-0.3235,1.2545,0.1559,1.2298,0.8198c0.0084,0.6022,0.0138,1.2044,0.0135,1.8066
	c0,0.0775-0.0385,0.1549-0.0621,0.2436c-0.3702-0.059-0.7036-0.092-1.0688-0.0538
	C13.2113,530.405,13.0558,530.4548,12.8642,530.4976z"/>
<path d="M18.9038,498.2079c-0.5561-0.2634-1.0531-0.116-1.5741,0.0656c-0.0319-0.1109-0.0702-0.1833-0.071-0.2561
	c-0.0073-0.6628-0.0085-1.3256-0.0106-1.9885c-0.0011-0.3376,0.1324-0.6052,0.4296-0.7735c0.4238-0.24,1.0028-0.0398,1.1972,0.4222
	c0.0628,0.1492,0.1011,0.3196,0.1043,0.4812c0.0119,0.6004,0.006,1.2011,0.0019,1.8017
	C18.9808,498.0187,18.9462,498.0765,18.9038,498.2079z"/>
<path d="M14.4529,498.1595c-0.2875-0.0237-0.5532-0.0678-0.8174-0.0607c-0.2432,0.0066-0.4849,0.0685-0.7279,0.106
	c-0.1088-0.0601-0.1124-0.1702-0.1151-0.2695c-0.0157-0.5809-0.033-1.1621-0.0316-1.7431c0.0004-0.1612,0.0384-0.3324,0.1013-0.4813
	c0.3172-0.735,1.4867-0.6593,1.6102,0.2038c0.0442,0.6614,0.0187,1.3287,0.0309,1.992
	C14.5033,497.9844,14.4731,498.0621,14.4529,498.1595z"/>
<path d="M18.9886,883.2936c-0.0106,0.4516,0.056,0.9249-0.0973,1.3585c-0.2923,0.777-1.4607,0.6909-1.6177-0.1424
	c-0.0555-0.7232-0.0097-1.4552-0.0249-2.1812c-0.0633-1.0219,1.2782-1.3501,1.6516-0.3953c0.1408,0.4371,0.0792,0.908,0.0891,1.3604
	C18.9892,883.2936,18.9889,883.2936,18.9886,883.2936z"/>
<path d="M14.5087,883.3894c-0.0093,0.3911,0.0251,0.7941-0.0241,1.1815c-0.1883,0.8334-1.3186,0.8969-1.6143,0.104
	c-0.0395-0.1167-0.0674-0.2426-0.0711-0.3652c-0.02-0.6639-0.0415-1.328-0.0404-1.9921c-0.0348-0.9148,1.2539-1.2823,1.6303-0.4077
	c0.0614,0.1494,0.0885,0.3204,0.0955,0.4831c0.0143,0.3315,0.0043,0.6642,0.0043,0.9963
	C14.4955,883.3894,14.5021,883.3894,14.5087,883.3894z"/>
<path d="M18.9065,371.2333c-0.7896-0.102-0.8244-0.0901-1.5955,0.1494c-0.0234-0.1259-0.0554-0.2205-0.0564-0.3153
	c-0.006-0.6205-0.0064-1.2411-0.0059-1.8617c-0.0398-0.4745,0.2761-0.9273,0.7544-0.9719c0.5734-0.062,0.9705,0.4118,0.9774,0.9572
	c0.0074,0.6202,0.0012,1.2406-0.0057,1.8608C18.9745,371.1074,18.9343,371.1626,18.9065,371.2333z"/>
<path d="M12.8873,371.2969c-0.0286-0.0555-0.078-0.1077-0.0797-0.1614c-0.021-0.6648-0.0496-1.3298-0.045-1.9946
	c0.0025-0.3558,0.1858-0.6253,0.5177-0.7909c0.4788-0.2388,0.9764,0.0769,1.1043,0.4012c0.0452,0.1147,0.0902,0.2382,0.0941,0.359
	c0.0226,0.7041,0.0212,1.4085,0.0307,2.142c-0.3073,0.0691-0.5624-0.0732-0.8206-0.0589
	C13.4244,371.2078,13.162,371.2598,12.8873,371.2969z"/>
<path d="M18.9295,562.9551c-0.788-0.1084-0.8377-0.101-1.6101,0.1065c-0.0243-0.0878-0.0617-0.1614-0.0625-0.2354
	c-0.0068-0.6425-0.0071-1.285-0.0091-1.9274c-0.0214-0.4525,0.2469-0.856,0.6625-0.9166c0.6377-0.1077,1.0669,0.3851,1.0709,0.9874
	c0.0094,0.5801,0.007,1.1604,0.003,1.7407C18.9836,562.7895,18.9497,562.8685,18.9295,562.9551z"/>
<path d="M14.45,562.9683c-0.9047-0.1013-0.9047-0.1013-1.5107,0.0593c-0.1177-0.0436-0.1441-0.1437-0.1465-0.2501
	c-0.014-0.6035-0.0331-1.207-0.0339-1.8105c-0.0006-0.4082,0.1734-0.7219,0.5648-0.8903c0.6234-0.2637,1.1818,0.2194,1.163,0.8618
	c0.0102,0.6036,0.0134,1.2074,0.0151,1.8112C14.5019,562.8089,14.4746,562.8685,14.45,562.9683z"/>
<path d="M13.241,49.7338c0.2488,0,0.5152,0,0.7574,0c0.4,0.1918,0.5848,0.5047,0.6029,0.9031
	c0.0235,0.5172,0.0354,1.0366,0.0165,1.5538c-0.0209,0.5716-0.3948,0.9183-0.9535,0.935c-0.6048,0.0213-0.9768-0.4719-0.9808-1.0468
	c-0.0191-0.4346-0.0367-0.8695-0.0415-1.3045C12.6374,50.3529,12.791,50.0062,13.241,49.7338z"/>
<path d="M17.1512,51.2928c0.0031-0.3498-0.0316-0.7128,0.0715-1.0515c0.1336-0.4111,0.4535-0.6215,0.9041-0.6151
	c0.4769,0.0009,0.8369,0.3134,0.9132,0.7705c0.0686,0.6221,0.0846,1.2467-0.0089,1.8651c-0.1294,1.0134-1.6866,1.04-1.8419,0.0256
	c-0.05-0.3252-0.032-0.6648-0.036-0.9947C17.1525,51.2928,17.1519,51.2928,17.1512,51.2928z"/>
<path d="M18.0821,913.2741c0.6849,0.1946,0.881,0.4075,0.9015,1.037c0.0196,0.6025,0.0114,1.2062-0.0004,1.8091
	c-0.0195,1.3438-1.7909,1.3361-1.7309-0.0212c-0.0039-0.6031-0.0092-1.2064-0.0027-1.8095
	C17.2561,913.6832,17.4226,913.4823,18.0821,913.2741z"/>
<path d="M14.5087,915.2981c-0.0089,0.3922,0.0229,0.7908-0.0205,1.1805c-0.0732,0.3885-0.3958,0.6599-0.7847,0.6743
	c-0.6151,0.0127-0.9091-0.4635-0.9127-1.0254c-0.0181-0.601-0.0339-1.2021-0.0334-1.8033c0.0001-0.161,0.0366-0.332,0.0984-0.481
	c0.2769-0.6963,1.3775-0.6586,1.5745,0.0934c0.0401,0.1369,0.0531,0.285,0.0569,0.4285c0.0082,0.3109,0.0025,0.6219,0.0025,0.933
	C14.496,915.2981,14.5023,915.2981,14.5087,915.2981z"/>
<path d="M18.1019,17.2826c0.678,0.1841,0.8653,0.3988,0.8845,1.0785c0.0158,0.5611,0.0092,1.1231,0,1.6845
	c0.0223,1.4282-1.7828,1.4231-1.7345,0.0656c-0.0027-0.6032-0.0084-1.2064-0.0023-1.8095
	C17.2559,17.6618,17.4368,17.4522,18.1019,17.2826z"/>
<path d="M14.509,19.2862c0,0.2903,0.003,0.5806-0.0014,0.8708c-0.0019,0.1237-0.0036,0.2509-0.0322,0.3701
	c-0.1871,0.8157-1.3921,0.8305-1.6135,0.0401c-0.0498-0.1775-0.0708-0.3671-0.0772-0.5521
	c-0.0185-0.5387-0.0292-1.0778-0.0295-1.6168c-0.0191-0.582,0.3106-1.0929,0.9414-1.0527c0.3659,0.0237,0.6551,0.2622,0.7485,0.6389
	c0.0813,0.4262,0.0339,0.8695,0.045,1.3017C14.4964,19.2862,14.5027,19.2862,14.509,19.2862z"/>
<path d="M18.9207,466.105c-0.7255-0.1252-0.7255-0.1252-1.5978,0.0962c-0.0219-0.0688-0.0633-0.1396-0.0641-0.2109
	c-0.0076-0.6637-0.0083-1.3275-0.0108-1.9913c0.002-0.4697,0.2823-0.8367,0.7036-0.8848c0.5815-0.087,1.0308,0.4057,1.0295,0.9763
	c0.0039,0.6014,0.0027,1.2028-0.0014,1.8042C18.9793,465.9538,18.9476,466.0126,18.9207,466.105z"/>
<path d="M14.4488,466.133c-0.5271-0.1013-1.0224-0.181-1.5301,0.0731c-0.0469-0.1036-0.1175-0.1895-0.1204-0.2776
	c-0.0211-0.6241-0.0405-1.2488-0.0353-1.8731c0.0032-0.3833,0.1877-0.6751,0.5512-0.8347c0.6182-0.2715,1.1877,0.21,1.1724,0.8495
	c0.0108,0.6037,0.014,1.2077,0.0161,1.8115C14.5029,465.9415,14.478,466.0013,14.4488,466.133z"/>
<path d="M18.9281,595.7333c-0.8155-0.1065-0.8472-0.1107-1.6247,0.121c-0.0206-0.1129-0.0471-0.1923-0.0478-0.2719
	c-0.0053-0.6436-0.0058-1.2872-0.0074-1.9308c-0.0174-0.445,0.2712-0.843,0.6883-0.9036c0.6419-0.0877,1.0439,0.4163,1.0458,1.024
	c0.0104,0.581,0.0042,1.1624,0.0001,1.7435C18.982,595.5751,18.9536,595.6346,18.9281,595.7333z"/>
<path d="M13.6078,592.7671c0.6725,0.1642,0.8611,0.3669,0.8789,0.9687c0.0172,0.5828,0.0144,1.1663,0.0153,1.7494
	c0.0001,0.0798-0.0287,0.1597-0.0491,0.2652c-0.5222-0.0235-1.0415-0.1981-1.5572,0.1228c-0.0475-0.1508-0.0992-0.243-0.1024-0.337
	c-0.0196-0.5619-0.0406-1.1241-0.0368-1.6862C12.761,593.2042,12.9271,593.0028,13.6078,592.7671z"/>
<path d="M17.3239,434.3726c-0.0298-0.0754-0.0577-0.1135-0.0582-0.1519c-0.0075-0.7045-0.0134-1.4091-0.016-2.1136
	c-0.001-0.2635,0.1022-0.4853,0.3032-0.655c0.4127-0.3485,1.0821-0.1986,1.3122,0.3033c0.0674,0.1469,0.1102,0.3183,0.1128,0.4793
	c0.0102,0.6213,0.0004,1.2429-0.0051,1.8644c-0.0003,0.0386-0.0279,0.0769-0.0559,0.1493
	c-0.2701-0.0204-0.5533-0.0738-0.8312-0.0535C17.827,434.2138,17.5738,434.3112,17.3239,434.3726z"/>
<path d="M14.4357,434.2911c-0.3706-0.0548-0.7048-0.0851-1.0701-0.0497c-0.1598,0.0154-0.3167,0.0612-0.4799,0.0945
	c-0.0342-0.0772-0.0777-0.1311-0.0794-0.1863c-0.0198-0.6447-0.0525-1.29-0.0422-1.9345c0.0074-0.466,0.2715-0.7734,0.667-0.8723
	c0.5973-0.1581,1.0748,0.3058,1.0565,0.8942c0.007,0.6245,0.0097,1.249,0.0109,1.8735
	C14.4985,434.1486,14.4731,434.1866,14.4357,434.2911z"/>
<path d="M18.921,628.5567c-0.7713-0.0689-0.7713-0.0689-1.6127,0.1209c-0.0187-0.095-0.0524-0.1889-0.0534-0.2831
	c-0.0063-0.6208-0.0059-1.2416-0.0065-1.8625c-0.0392-0.4525,0.2382-0.8896,0.6928-0.9574c0.6049-0.1003,1.0267,0.3747,1.039,0.9502
	c0.0115,0.6204,0.0036,1.2411-0.0023,1.8618C18.9774,628.4441,18.9404,628.5012,18.921,628.5567z"/>
<path d="M14.4438,628.628c-0.5232-0.1265-1.0144-0.1871-1.5262,0.0311c-0.0455-0.1003-0.1165-0.1863-0.1196-0.2747
	c-0.0222-0.621-0.0508-1.2431-0.0369-1.864c-0.0145-0.9852,1.3234-1.2732,1.6521-0.3751c0.0464,0.1343,0.0695,0.2825,0.0724,0.425
	c0.0124,0.6009,0.0143,1.2019,0.0162,1.8029C14.5021,628.4326,14.4759,628.4921,14.4438,628.628z"/>
<path d="M18.9154,402.6475c-0.7907-0.11-0.8308-0.0996-1.6094,0.1243c-0.0216-0.1527-0.0511-0.2692-0.0524-0.386
	c-0.0061-0.5824-0.0051-1.1649-0.0058-1.7474c-0.0462-0.477,0.2562-0.9397,0.7344-0.9992c0.5579-0.0693,0.9887,0.4055,0.9964,0.9533
	c0.0099,0.6237,0.0055,1.2477,0.0011,1.8716C18.9793,402.5205,18.9413,402.5767,18.9154,402.6475z"/>
<path d="M14.4377,402.6755c-0.2668-0.0252-0.5303-0.0723-0.7932-0.0685c-0.2434,0.0035-0.486,0.0615-0.7328,0.0959
	c-0.1115-0.053-0.1164-0.1644-0.1191-0.2632c-0.0166-0.6008-0.0348-1.2019-0.0326-1.8028c0.0006-0.1599,0.0469-0.3305,0.114-0.477
	c0.3124-0.6886,1.3952-0.6077,1.572,0.1494c0.0267,0.0988,0.0399,0.2041,0.0413,0.3067c0.0082,0.6218,0.0128,1.2438,0.0134,1.8657
	C14.5007,402.5389,14.4645,402.5961,14.4377,402.6755z"/>
</svg>
